G04*
G04 #@! TF.GenerationSoftware,Altium Limited,Altium Designer,18.1.7 (191)*
G04*
G04 Layer_Color=16711935*
%FSLAX24Y24*%
%MOIN*%
G70*
G01*
G75*
%ADD25C,0.0250*%
%ADD59R,0.0552X0.0434*%
%ADD67R,0.0592X0.0356*%
%ADD68R,0.0434X0.0552*%
%ADD69R,0.0356X0.0592*%
%ADD87C,0.0680*%
%ADD88C,0.0671*%
%ADD89R,0.0671X0.0671*%
%ADD90C,0.2442*%
%ADD91O,0.1537X0.0434*%
%ADD92C,0.1954*%
%ADD93R,0.0749X0.0749*%
%ADD94C,0.0749*%
%ADD95R,0.0749X0.0749*%
%ADD96C,0.0867*%
%ADD97C,0.0946*%
%ADD98C,0.0631*%
%ADD99C,0.1360*%
%ADD100C,0.0580*%
%ADD101C,0.0360*%
%ADD160R,0.0572X0.0415*%
D25*
X0Y0D02*
X27Y-27D01*
X47257D01*
X47261Y-32D01*
Y49D01*
Y39359D01*
X47263Y39361D01*
X20D02*
X47263D01*
X0Y39340D02*
X20Y39361D01*
X0Y0D02*
Y39340D01*
D59*
X29068Y18417D02*
D03*
Y19243D02*
D03*
X24948Y26327D02*
D03*
Y25500D02*
D03*
X24187Y26327D02*
D03*
Y25500D02*
D03*
X26488Y26327D02*
D03*
Y25500D02*
D03*
X23074Y32372D02*
D03*
Y33198D02*
D03*
X23844Y32372D02*
D03*
Y33198D02*
D03*
X10538Y10923D02*
D03*
Y11750D02*
D03*
X11258Y10923D02*
D03*
Y11750D02*
D03*
X29561Y13253D02*
D03*
Y12427D02*
D03*
X30411Y10733D02*
D03*
Y9907D02*
D03*
X28851Y9857D02*
D03*
Y10683D02*
D03*
X25588Y18417D02*
D03*
Y19243D02*
D03*
X37414Y14802D02*
D03*
Y13975D02*
D03*
Y10922D02*
D03*
Y10095D02*
D03*
Y9033D02*
D03*
Y8206D02*
D03*
X44280Y11887D02*
D03*
Y11060D02*
D03*
X42008Y18287D02*
D03*
Y17461D02*
D03*
X35441Y16629D02*
D03*
Y17456D02*
D03*
X45618Y18455D02*
D03*
Y19282D02*
D03*
X42923Y7782D02*
D03*
Y6956D02*
D03*
X33933Y19887D02*
D03*
Y19060D02*
D03*
X30940Y33144D02*
D03*
Y32317D02*
D03*
X31700Y33144D02*
D03*
Y32317D02*
D03*
X28268Y19243D02*
D03*
Y18417D02*
D03*
X29548Y25500D02*
D03*
Y26327D02*
D03*
X29918Y19243D02*
D03*
Y18417D02*
D03*
X24501Y19243D02*
D03*
Y18417D02*
D03*
X25718Y25500D02*
D03*
Y26327D02*
D03*
X30707Y19243D02*
D03*
Y18417D02*
D03*
X30973Y25500D02*
D03*
Y26327D02*
D03*
X28781Y12427D02*
D03*
Y13253D02*
D03*
X33641Y9120D02*
D03*
Y9947D02*
D03*
X29611Y10683D02*
D03*
Y9857D02*
D03*
X31321Y7577D02*
D03*
Y8403D02*
D03*
X39070Y14330D02*
D03*
Y15157D02*
D03*
X37414Y12080D02*
D03*
Y12907D02*
D03*
D67*
X6184Y5760D02*
D03*
Y5012D02*
D03*
X7654Y5760D02*
D03*
Y5012D02*
D03*
X9074Y5760D02*
D03*
Y5012D02*
D03*
X10554Y5760D02*
D03*
Y5012D02*
D03*
X6158Y7969D02*
D03*
Y7221D02*
D03*
X7598Y7969D02*
D03*
Y7221D02*
D03*
X9058Y7969D02*
D03*
Y7221D02*
D03*
X10488Y7969D02*
D03*
Y7221D02*
D03*
X28306Y26172D02*
D03*
Y25424D02*
D03*
X43683Y7005D02*
D03*
Y7753D02*
D03*
X9758Y7221D02*
D03*
Y7969D02*
D03*
X6868Y7221D02*
D03*
Y7969D02*
D03*
X9824Y5012D02*
D03*
Y5760D02*
D03*
X5289Y7221D02*
D03*
Y7969D02*
D03*
X8344Y5012D02*
D03*
Y5760D02*
D03*
X6924Y5012D02*
D03*
Y5760D02*
D03*
X5316Y5012D02*
D03*
Y5760D02*
D03*
X8328Y7221D02*
D03*
Y7969D02*
D03*
X27937Y14291D02*
D03*
Y15039D02*
D03*
X28851Y7942D02*
D03*
Y8690D02*
D03*
X30476Y8275D02*
D03*
Y7527D02*
D03*
X45560Y13360D02*
D03*
Y14108D02*
D03*
X45620Y8970D02*
D03*
Y9718D02*
D03*
D68*
X31522Y24693D02*
D03*
X30695D02*
D03*
X23695Y21658D02*
D03*
X24522D02*
D03*
X23695Y22398D02*
D03*
X24522D02*
D03*
X23695Y23568D02*
D03*
X24522D02*
D03*
X23695Y24350D02*
D03*
X24522D02*
D03*
X38880Y28983D02*
D03*
X39707D02*
D03*
X38880Y29733D02*
D03*
X39707D02*
D03*
X38257Y27873D02*
D03*
X37430D02*
D03*
X38247Y28983D02*
D03*
X37420D02*
D03*
X17293Y31494D02*
D03*
X18120D02*
D03*
X17293Y32534D02*
D03*
X18120D02*
D03*
X5076Y21863D02*
D03*
X5903D02*
D03*
X7261Y20964D02*
D03*
X6434D02*
D03*
Y20204D02*
D03*
X7261D02*
D03*
X6434Y19444D02*
D03*
X7261D02*
D03*
X7132Y12464D02*
D03*
X6306D02*
D03*
X7132Y13224D02*
D03*
X6306D02*
D03*
X7776Y13454D02*
D03*
X8602D02*
D03*
X7776Y14474D02*
D03*
X8602D02*
D03*
X17071Y7577D02*
D03*
X16244D02*
D03*
X31074Y11390D02*
D03*
X30247D02*
D03*
X31074Y12140D02*
D03*
X30247D02*
D03*
X31647Y12810D02*
D03*
X32474D02*
D03*
X31657Y13570D02*
D03*
X32484D02*
D03*
X27309Y10881D02*
D03*
X28136D02*
D03*
X31420Y9466D02*
D03*
X32247D02*
D03*
X18135Y13676D02*
D03*
X17308D02*
D03*
X18122Y14706D02*
D03*
X17295D02*
D03*
X18745Y14886D02*
D03*
X19572D02*
D03*
X18745Y15646D02*
D03*
X19572D02*
D03*
X23642Y19915D02*
D03*
X24469D02*
D03*
X23262Y19080D02*
D03*
X22435D02*
D03*
X31522Y21148D02*
D03*
X30695D02*
D03*
X31522Y20183D02*
D03*
X30695D02*
D03*
Y21918D02*
D03*
X31522D02*
D03*
X31402Y19194D02*
D03*
X32229D02*
D03*
X16535Y27961D02*
D03*
X15708D02*
D03*
X32578Y14938D02*
D03*
X33405D02*
D03*
X15773Y30674D02*
D03*
X16600D02*
D03*
X15773Y31434D02*
D03*
X16600D02*
D03*
X16244Y6807D02*
D03*
X17071D02*
D03*
X31758Y25628D02*
D03*
X32585D02*
D03*
X22396Y25674D02*
D03*
X23223D02*
D03*
X27327Y10110D02*
D03*
X28154D02*
D03*
X28114Y11660D02*
D03*
X27287D02*
D03*
D69*
X1635Y17660D02*
D03*
X887D02*
D03*
X8813Y20034D02*
D03*
X9561D02*
D03*
X9454Y21070D02*
D03*
X8706D02*
D03*
X9455Y22057D02*
D03*
X8706D02*
D03*
X25861Y9890D02*
D03*
X25113D02*
D03*
X25111Y10620D02*
D03*
X25859D02*
D03*
X25093Y11360D02*
D03*
X25841D02*
D03*
X25112Y12175D02*
D03*
X25860D02*
D03*
X25102Y12923D02*
D03*
X25850D02*
D03*
X25102Y13673D02*
D03*
X25850D02*
D03*
X34041Y14953D02*
D03*
X34789D02*
D03*
X44194Y16778D02*
D03*
X44942D02*
D03*
X862Y18495D02*
D03*
X1610D02*
D03*
X866Y19340D02*
D03*
X1614D02*
D03*
X866Y20179D02*
D03*
X1614D02*
D03*
X39155Y24494D02*
D03*
X38407D02*
D03*
X39155Y23768D02*
D03*
X38407D02*
D03*
X39155Y21591D02*
D03*
X38407D02*
D03*
X39155Y20140D02*
D03*
X38407D02*
D03*
X39155Y20865D02*
D03*
X38407D02*
D03*
X39155Y19414D02*
D03*
X38407D02*
D03*
X39155Y23042D02*
D03*
X38407D02*
D03*
X39155Y22317D02*
D03*
X38407D02*
D03*
D87*
X4435Y33942D02*
D03*
X5435D02*
D03*
X6435D02*
D03*
X7435D02*
D03*
X8435D02*
D03*
X9435D02*
D03*
X6600Y27210D02*
D03*
X5600D02*
D03*
X7600D02*
D03*
X1180Y32030D02*
D03*
Y31030D02*
D03*
Y30030D02*
D03*
Y29030D02*
D03*
X3198Y17548D02*
D03*
Y18548D02*
D03*
Y19548D02*
D03*
Y20548D02*
D03*
D88*
X19611Y27243D02*
D03*
Y26243D02*
D03*
X18611Y27243D02*
D03*
Y26243D02*
D03*
X17611Y27243D02*
D03*
Y26243D02*
D03*
X16611Y27243D02*
D03*
Y26243D02*
D03*
X15611Y27243D02*
D03*
X44620Y8911D02*
D03*
Y9911D02*
D03*
Y13132D02*
D03*
Y14132D02*
D03*
D89*
X15611Y26243D02*
D03*
D90*
X45276Y1969D02*
D03*
X1969Y37402D02*
D03*
Y1969D02*
D03*
X45276Y37402D02*
D03*
D91*
X1125Y24395D02*
D03*
Y21521D02*
D03*
D92*
X6320Y2594D02*
D03*
X16158D02*
D03*
X19246D02*
D03*
X29084D02*
D03*
X32172D02*
D03*
X42011D02*
D03*
X44638Y23854D02*
D03*
Y33693D02*
D03*
X28380Y36866D02*
D03*
X18542D02*
D03*
X15149D02*
D03*
X5310D02*
D03*
X2542Y15326D02*
D03*
Y5487D02*
D03*
X31773Y36866D02*
D03*
X41612D02*
D03*
D93*
X13420Y3153D02*
D03*
X26346D02*
D03*
X39272D02*
D03*
X21280Y36307D02*
D03*
X8048D02*
D03*
X34511D02*
D03*
D94*
X12875Y2035D02*
D03*
X12330Y3153D02*
D03*
X11784Y2035D02*
D03*
X11239Y3153D02*
D03*
X10694Y2035D02*
D03*
X10148Y3153D02*
D03*
X9603Y2035D02*
D03*
X9058Y3153D02*
D03*
X25801Y2035D02*
D03*
X25256Y3153D02*
D03*
X24710Y2035D02*
D03*
X24165Y3153D02*
D03*
X23620Y2035D02*
D03*
X23075Y3153D02*
D03*
X22529Y2035D02*
D03*
X21984Y3153D02*
D03*
X38727Y2035D02*
D03*
X38182Y3153D02*
D03*
X37637Y2035D02*
D03*
X37091Y3153D02*
D03*
X36546Y2035D02*
D03*
X36001Y3153D02*
D03*
X35456Y2035D02*
D03*
X34910Y3153D02*
D03*
X45197Y30409D02*
D03*
X44079Y29864D02*
D03*
X45197Y29319D02*
D03*
X44079Y28774D02*
D03*
X45197Y28228D02*
D03*
X44079Y27683D02*
D03*
X45197Y27138D02*
D03*
X44079Y26593D02*
D03*
X21825Y37425D02*
D03*
X22370Y36307D02*
D03*
X22916Y37425D02*
D03*
X23461Y36307D02*
D03*
X24006Y37425D02*
D03*
X24552Y36307D02*
D03*
X25097Y37425D02*
D03*
X25642Y36307D02*
D03*
X8594Y37425D02*
D03*
X9139Y36307D02*
D03*
X9684Y37425D02*
D03*
X10230Y36307D02*
D03*
X10775Y37425D02*
D03*
X11320Y36307D02*
D03*
X11865Y37425D02*
D03*
X12411Y36307D02*
D03*
X1983Y8770D02*
D03*
X3101Y9316D02*
D03*
X1983Y9861D02*
D03*
X3101Y10406D02*
D03*
X1983Y10952D02*
D03*
X3101Y11497D02*
D03*
X1983Y12042D02*
D03*
X3101Y12587D02*
D03*
X38874Y36307D02*
D03*
X38328Y37425D02*
D03*
X37783Y36307D02*
D03*
X37238Y37425D02*
D03*
X36693Y36307D02*
D03*
X36147Y37425D02*
D03*
X35602Y36307D02*
D03*
X35057Y37425D02*
D03*
D95*
X44079Y30955D02*
D03*
X3101Y8225D02*
D03*
D96*
X8554Y25090D02*
D03*
X39762Y32962D02*
D03*
X11531Y14854D02*
D03*
X38025Y17748D02*
D03*
X42107Y5428D02*
D03*
D97*
X41788Y14571D02*
D03*
Y8473D02*
D03*
D98*
X39488Y9272D02*
D03*
Y10272D02*
D03*
Y11272D02*
D03*
Y12272D02*
D03*
Y13272D02*
D03*
X40489Y9772D02*
D03*
Y10772D02*
D03*
Y11772D02*
D03*
Y12772D02*
D03*
Y13772D02*
D03*
D99*
X42989D02*
D03*
Y9272D02*
D03*
D100*
X11195Y20247D02*
D03*
X13445D02*
D03*
X12345D02*
D03*
X12945Y21247D02*
D03*
X11795D02*
D03*
X9320Y29620D02*
D03*
Y31870D02*
D03*
Y30770D02*
D03*
X8320Y31370D02*
D03*
Y30220D02*
D03*
D101*
X29124Y23441D02*
D03*
Y22574D02*
D03*
Y21708D02*
D03*
X26092Y20842D02*
D03*
Y21275D02*
D03*
Y21708D02*
D03*
Y22141D02*
D03*
Y22574D02*
D03*
Y23007D02*
D03*
Y23441D02*
D03*
Y23874D02*
D03*
X26525Y20842D02*
D03*
Y21275D02*
D03*
Y21708D02*
D03*
Y22141D02*
D03*
Y22574D02*
D03*
Y23007D02*
D03*
Y23441D02*
D03*
Y23874D02*
D03*
X26958Y20842D02*
D03*
Y21275D02*
D03*
Y21708D02*
D03*
Y22141D02*
D03*
Y22574D02*
D03*
Y23007D02*
D03*
Y23441D02*
D03*
Y23874D02*
D03*
X27391Y20842D02*
D03*
Y21275D02*
D03*
Y21708D02*
D03*
Y22141D02*
D03*
Y22574D02*
D03*
Y23007D02*
D03*
Y23441D02*
D03*
Y23874D02*
D03*
X27824Y20842D02*
D03*
Y21275D02*
D03*
Y21708D02*
D03*
Y22141D02*
D03*
Y22574D02*
D03*
Y23007D02*
D03*
Y23441D02*
D03*
Y23874D02*
D03*
X28258Y20842D02*
D03*
Y21275D02*
D03*
Y21708D02*
D03*
Y22141D02*
D03*
Y22574D02*
D03*
Y23007D02*
D03*
Y23441D02*
D03*
Y23874D02*
D03*
X28691Y20842D02*
D03*
Y21275D02*
D03*
Y21708D02*
D03*
Y22141D02*
D03*
Y22574D02*
D03*
Y23007D02*
D03*
Y23441D02*
D03*
Y23874D02*
D03*
X29124Y20842D02*
D03*
Y21275D02*
D03*
Y22141D02*
D03*
Y23007D02*
D03*
Y23874D02*
D03*
D160*
X32270Y7713D02*
D03*
Y8461D02*
D03*
X33368Y8087D02*
D03*
M02*
