G04*
G04 #@! TF.GenerationSoftware,Altium Limited,Altium Designer,18.1.7 (191)*
G04*
G04 Layer_Color=8421504*
%FSLAX24Y24*%
%MOIN*%
G70*
G01*
G75*
%ADD25C,0.0250*%
%ADD26R,0.3280X0.2000*%
%ADD27R,0.0600X0.0850*%
%ADD28R,0.4250X0.0750*%
%ADD29R,0.0472X0.0354*%
%ADD30R,0.0650X0.0240*%
%ADD31C,0.0394*%
%ADD32R,0.1102X0.1102*%
%ADD33R,0.2000X0.3280*%
%ADD34R,0.0850X0.0600*%
%ADD35R,0.0750X0.4250*%
%ADD36R,0.0551X0.0197*%
%ADD37R,0.0512X0.0276*%
%ADD38R,0.0354X0.0472*%
%ADD39R,0.0276X0.0512*%
%ADD40R,0.0591X0.0157*%
%ADD41R,0.0276X0.0315*%
%ADD42R,0.0319X0.0110*%
%ADD43R,0.0110X0.0319*%
%ADD44R,0.0591X0.0846*%
%ADD45R,0.1496X0.0846*%
%ADD46R,0.0160X0.0625*%
%ADD47R,0.0240X0.0650*%
%ADD48R,0.0642X0.0169*%
%ADD49R,0.1102X0.1102*%
%ADD50R,0.0236X0.0472*%
%ADD51R,0.3575X0.3575*%
%ADD52R,0.0551X0.0118*%
%ADD53R,0.0118X0.0551*%
%ADD54R,0.0354X0.0394*%
%ADD55R,0.0500X0.0299*%
G36*
X28451Y12201D02*
X29712D01*
Y10940D01*
X28451D01*
Y12201D01*
D02*
G37*
D25*
X0Y0D02*
X27Y-27D01*
X47257D01*
X47261Y-32D01*
Y49D01*
Y39359D01*
X47263Y39361D01*
X20D02*
X47263D01*
X0Y39340D02*
X20Y39361D01*
X0Y0D02*
Y39340D01*
D26*
X12295Y21097D02*
D03*
D27*
X11295Y24947D02*
D03*
X12295D02*
D03*
X13295D02*
D03*
D28*
X12295Y19747D02*
D03*
D29*
X15869Y13196D02*
D03*
Y14023D02*
D03*
X9931Y13622D02*
D03*
Y12795D02*
D03*
X19446Y33100D02*
D03*
Y32274D02*
D03*
X19446Y31647D02*
D03*
Y30820D02*
D03*
X11150Y29520D02*
D03*
Y28693D02*
D03*
X11990Y29513D02*
D03*
Y28687D02*
D03*
X733Y26143D02*
D03*
Y25316D02*
D03*
X31801Y17436D02*
D03*
Y16609D02*
D03*
X31841Y15616D02*
D03*
Y14789D02*
D03*
X42018Y17442D02*
D03*
Y16615D02*
D03*
X41978Y19262D02*
D03*
Y18435D02*
D03*
X36023Y28909D02*
D03*
Y29736D02*
D03*
Y27439D02*
D03*
Y28266D02*
D03*
X9943Y14206D02*
D03*
Y15033D02*
D03*
X15869Y15480D02*
D03*
Y14653D02*
D03*
D30*
X18552Y7467D02*
D03*
Y7967D02*
D03*
Y8467D02*
D03*
Y8967D02*
D03*
Y9467D02*
D03*
Y9967D02*
D03*
Y10467D02*
D03*
Y10967D02*
D03*
X16322D02*
D03*
Y10467D02*
D03*
Y9967D02*
D03*
Y9467D02*
D03*
Y8967D02*
D03*
Y8467D02*
D03*
Y7967D02*
D03*
Y7467D02*
D03*
D31*
X3740Y35630D02*
D03*
X43504Y3740D02*
D03*
X3740D02*
D03*
X43504Y35630D02*
D03*
D32*
X12607Y26758D02*
D03*
X10835D02*
D03*
X13975Y18077D02*
D03*
X12204D02*
D03*
X22984Y17447D02*
D03*
X21213D02*
D03*
D33*
X8470Y30720D02*
D03*
D34*
X4620Y29720D02*
D03*
Y30720D02*
D03*
Y31720D02*
D03*
D35*
X9820Y30720D02*
D03*
D36*
X2070Y22328D02*
D03*
Y22643D02*
D03*
Y22958D02*
D03*
Y23273D02*
D03*
Y23587D02*
D03*
D37*
X1531Y25297D02*
D03*
Y26045D02*
D03*
X27937Y13917D02*
D03*
Y14665D02*
D03*
X27381Y9064D02*
D03*
Y8316D02*
D03*
X28111Y9064D02*
D03*
Y8316D02*
D03*
X28851D02*
D03*
Y9064D02*
D03*
X29581Y9058D02*
D03*
Y8310D02*
D03*
X30471Y9104D02*
D03*
Y8356D02*
D03*
X31211Y8346D02*
D03*
Y9094D02*
D03*
X35451Y15627D02*
D03*
Y14879D02*
D03*
X35431Y17517D02*
D03*
Y16769D02*
D03*
X19540Y8038D02*
D03*
Y7290D02*
D03*
X19540Y9873D02*
D03*
Y10621D02*
D03*
X15326Y10297D02*
D03*
Y11045D02*
D03*
X15326Y8544D02*
D03*
Y7796D02*
D03*
X45608Y19342D02*
D03*
Y18594D02*
D03*
X45628Y17452D02*
D03*
Y16704D02*
D03*
X33617Y10178D02*
D03*
Y9430D02*
D03*
D38*
X4677Y25560D02*
D03*
X5503D02*
D03*
X4697Y24690D02*
D03*
X5523D02*
D03*
X11091Y17452D02*
D03*
X10264D02*
D03*
X11099Y18337D02*
D03*
X10272D02*
D03*
D39*
X3654Y23810D02*
D03*
X2906D02*
D03*
X9221Y20044D02*
D03*
X8473D02*
D03*
X25503Y14408D02*
D03*
X26251D02*
D03*
X26224Y13673D02*
D03*
X25476D02*
D03*
X26224Y12923D02*
D03*
X25476D02*
D03*
X26234Y12175D02*
D03*
X25486D02*
D03*
X26215Y11360D02*
D03*
X25467D02*
D03*
X26225Y10620D02*
D03*
X25477D02*
D03*
X25473Y9839D02*
D03*
X26221D02*
D03*
X26196Y8983D02*
D03*
X25448D02*
D03*
X25458Y8223D02*
D03*
X26206D02*
D03*
X36928Y8028D02*
D03*
X36180D02*
D03*
X36928Y9204D02*
D03*
X36180D02*
D03*
X36928Y9947D02*
D03*
X36180D02*
D03*
X36928Y11140D02*
D03*
X36180D02*
D03*
X36928Y11883D02*
D03*
X36180D02*
D03*
X36928Y13135D02*
D03*
X36180D02*
D03*
X36928Y13878D02*
D03*
X36180D02*
D03*
X36928Y14938D02*
D03*
X36180D02*
D03*
X32659Y21614D02*
D03*
X33407D02*
D03*
X32668Y22328D02*
D03*
X33416D02*
D03*
X32668Y23458D02*
D03*
X33417D02*
D03*
X32668Y24178D02*
D03*
X33416D02*
D03*
X32674Y24918D02*
D03*
X33422D02*
D03*
X26787Y30013D02*
D03*
X26039D02*
D03*
X23659Y30013D02*
D03*
X24407D02*
D03*
X24013Y34025D02*
D03*
X24761D02*
D03*
X26457Y34025D02*
D03*
X27206D02*
D03*
X3380Y28960D02*
D03*
X2632D02*
D03*
X31472Y13205D02*
D03*
X32220D02*
D03*
X31637Y9890D02*
D03*
X32385D02*
D03*
D40*
X7524Y22543D02*
D03*
Y22287D02*
D03*
Y22031D02*
D03*
Y21775D02*
D03*
Y21520D02*
D03*
Y21264D02*
D03*
Y21008D02*
D03*
Y20752D02*
D03*
Y20496D02*
D03*
Y20240D02*
D03*
Y19984D02*
D03*
Y19728D02*
D03*
Y19472D02*
D03*
Y19216D02*
D03*
X4670D02*
D03*
Y19472D02*
D03*
Y19728D02*
D03*
Y19984D02*
D03*
Y20240D02*
D03*
Y20496D02*
D03*
Y20752D02*
D03*
Y21008D02*
D03*
Y21264D02*
D03*
Y21520D02*
D03*
Y21775D02*
D03*
Y22031D02*
D03*
Y22287D02*
D03*
Y22543D02*
D03*
D41*
X8545Y21080D02*
D03*
X9175D02*
D03*
X8546Y22047D02*
D03*
X9175D02*
D03*
X1305Y19350D02*
D03*
X1935D02*
D03*
X1326Y17660D02*
D03*
X1956D02*
D03*
X1301Y18515D02*
D03*
X1931D02*
D03*
X1305Y20169D02*
D03*
X1935D02*
D03*
D42*
X30439Y10487D02*
D03*
Y10684D02*
D03*
Y10881D02*
D03*
Y11078D02*
D03*
Y11275D02*
D03*
Y11472D02*
D03*
Y11669D02*
D03*
Y11865D02*
D03*
Y12062D02*
D03*
Y12259D02*
D03*
Y12456D02*
D03*
Y12653D02*
D03*
X27722D02*
D03*
Y12456D02*
D03*
Y12259D02*
D03*
Y12062D02*
D03*
Y11865D02*
D03*
Y11669D02*
D03*
Y11472D02*
D03*
Y11275D02*
D03*
Y11078D02*
D03*
Y10881D02*
D03*
Y10684D02*
D03*
Y10487D02*
D03*
D43*
X30163Y12928D02*
D03*
X29967D02*
D03*
X29770D02*
D03*
X29573D02*
D03*
X29376D02*
D03*
X29179D02*
D03*
X28982D02*
D03*
X28785D02*
D03*
X28589D02*
D03*
X28392D02*
D03*
X28195D02*
D03*
X27998D02*
D03*
Y10212D02*
D03*
X28195D02*
D03*
X28392D02*
D03*
X28589D02*
D03*
X28785D02*
D03*
X28982D02*
D03*
X29179D02*
D03*
X29376D02*
D03*
X29573D02*
D03*
X29770D02*
D03*
X29967D02*
D03*
X30163D02*
D03*
D44*
X44714Y19100D02*
D03*
X43808D02*
D03*
X42903D02*
D03*
X32796Y17274D02*
D03*
X33701D02*
D03*
X34607D02*
D03*
D45*
X43808Y16797D02*
D03*
X33701Y14971D02*
D03*
D46*
X31500Y33148D02*
D03*
X31760D02*
D03*
X32020D02*
D03*
X32280D02*
D03*
X32540D02*
D03*
X32800D02*
D03*
X33060D02*
D03*
X33320D02*
D03*
Y30753D02*
D03*
X33060D02*
D03*
X32800D02*
D03*
X32540D02*
D03*
X32280D02*
D03*
X32020D02*
D03*
X31760D02*
D03*
X31500D02*
D03*
X11358Y9352D02*
D03*
X11618D02*
D03*
X11098D02*
D03*
X11878D02*
D03*
X12138D02*
D03*
X12398D02*
D03*
X12658D02*
D03*
X12918D02*
D03*
Y11747D02*
D03*
X12658D02*
D03*
X12398D02*
D03*
X12138D02*
D03*
X11878D02*
D03*
X11618D02*
D03*
X11358D02*
D03*
X11098D02*
D03*
D47*
X23684Y30930D02*
D03*
X24184D02*
D03*
X24684D02*
D03*
X25184D02*
D03*
X25684D02*
D03*
X27184D02*
D03*
Y33160D02*
D03*
X26684D02*
D03*
X26184D02*
D03*
X25684D02*
D03*
X25184D02*
D03*
X24684D02*
D03*
X24184D02*
D03*
X23684D02*
D03*
X26684Y30930D02*
D03*
X26184D02*
D03*
D48*
X6295Y12931D02*
D03*
Y13186D02*
D03*
Y13442D02*
D03*
Y13698D02*
D03*
Y13954D02*
D03*
Y14210D02*
D03*
Y14466D02*
D03*
Y14722D02*
D03*
Y14978D02*
D03*
Y15234D02*
D03*
X8929Y15234D02*
D03*
Y14978D02*
D03*
Y14722D02*
D03*
Y14466D02*
D03*
Y14210D02*
D03*
Y13954D02*
D03*
Y13698D02*
D03*
Y13442D02*
D03*
Y13186D02*
D03*
Y12931D02*
D03*
X16905Y15214D02*
D03*
Y14958D02*
D03*
Y14702D02*
D03*
Y14446D02*
D03*
Y14191D02*
D03*
Y13935D02*
D03*
Y13679D02*
D03*
Y13423D02*
D03*
Y13167D02*
D03*
Y12911D02*
D03*
X19539Y12911D02*
D03*
Y13167D02*
D03*
Y13423D02*
D03*
Y13679D02*
D03*
Y13935D02*
D03*
Y14191D02*
D03*
Y14446D02*
D03*
Y14702D02*
D03*
Y14958D02*
D03*
Y15214D02*
D03*
X37053Y29500D02*
D03*
Y29244D02*
D03*
Y28988D02*
D03*
Y28733D02*
D03*
Y28477D02*
D03*
Y28221D02*
D03*
Y27965D02*
D03*
Y27709D02*
D03*
Y27453D02*
D03*
Y27197D02*
D03*
X39687Y27197D02*
D03*
Y27453D02*
D03*
Y27709D02*
D03*
Y27965D02*
D03*
Y28221D02*
D03*
Y28477D02*
D03*
Y28733D02*
D03*
Y28989D02*
D03*
Y29244D02*
D03*
Y29500D02*
D03*
X18406Y30972D02*
D03*
Y31228D02*
D03*
Y31484D02*
D03*
Y31740D02*
D03*
Y31996D02*
D03*
Y32251D02*
D03*
Y32507D02*
D03*
Y32763D02*
D03*
Y33019D02*
D03*
Y33275D02*
D03*
X15772Y33275D02*
D03*
Y33019D02*
D03*
Y32763D02*
D03*
Y32507D02*
D03*
Y32251D02*
D03*
Y31996D02*
D03*
Y31740D02*
D03*
Y31484D02*
D03*
Y31228D02*
D03*
Y30972D02*
D03*
D49*
X3520Y24938D02*
D03*
Y26710D02*
D03*
X11500Y30560D02*
D03*
Y32332D02*
D03*
X2990Y30168D02*
D03*
Y31940D02*
D03*
D50*
X10318Y7984D02*
D03*
Y7275D02*
D03*
X9944Y7984D02*
D03*
Y7275D02*
D03*
X7428Y7984D02*
D03*
Y7275D02*
D03*
X7054Y7984D02*
D03*
Y7275D02*
D03*
X10384Y5774D02*
D03*
Y5066D02*
D03*
X10010Y5774D02*
D03*
Y5066D02*
D03*
X5988Y7984D02*
D03*
Y7275D02*
D03*
X5614Y7984D02*
D03*
Y7275D02*
D03*
X8904Y5774D02*
D03*
Y5066D02*
D03*
X8530Y5774D02*
D03*
Y5066D02*
D03*
X7484Y5774D02*
D03*
Y5066D02*
D03*
X7110Y5774D02*
D03*
Y5066D02*
D03*
X6014Y5774D02*
D03*
Y5066D02*
D03*
X5640Y5774D02*
D03*
Y5066D02*
D03*
X8888Y7984D02*
D03*
Y7275D02*
D03*
X8514Y7984D02*
D03*
Y7275D02*
D03*
D51*
X27608Y22358D02*
D03*
D52*
X31821Y25803D02*
D03*
Y25606D02*
D03*
Y25409D02*
D03*
Y25212D02*
D03*
Y25015D02*
D03*
Y24818D02*
D03*
Y24622D02*
D03*
Y24425D02*
D03*
Y24228D02*
D03*
Y24031D02*
D03*
Y23834D02*
D03*
Y23637D02*
D03*
Y23441D02*
D03*
Y23244D02*
D03*
Y23047D02*
D03*
Y22850D02*
D03*
Y22653D02*
D03*
Y22456D02*
D03*
Y22259D02*
D03*
Y22063D02*
D03*
Y21866D02*
D03*
Y21669D02*
D03*
Y21472D02*
D03*
Y21275D02*
D03*
Y21078D02*
D03*
Y20881D02*
D03*
Y20685D02*
D03*
Y20488D02*
D03*
Y20291D02*
D03*
Y20094D02*
D03*
Y19897D02*
D03*
Y19700D02*
D03*
Y19504D02*
D03*
Y19307D02*
D03*
Y19110D02*
D03*
Y18913D02*
D03*
X23395D02*
D03*
Y19110D02*
D03*
Y19307D02*
D03*
Y19504D02*
D03*
Y19700D02*
D03*
Y19897D02*
D03*
Y20094D02*
D03*
Y20291D02*
D03*
Y20488D02*
D03*
Y20685D02*
D03*
Y20881D02*
D03*
Y21078D02*
D03*
Y21275D02*
D03*
Y21472D02*
D03*
Y21669D02*
D03*
Y21866D02*
D03*
Y22063D02*
D03*
Y22259D02*
D03*
Y22456D02*
D03*
Y22653D02*
D03*
Y22850D02*
D03*
Y23047D02*
D03*
Y23244D02*
D03*
Y23441D02*
D03*
Y23637D02*
D03*
Y23834D02*
D03*
Y24031D02*
D03*
Y24228D02*
D03*
Y24425D02*
D03*
Y24622D02*
D03*
Y24818D02*
D03*
Y25015D02*
D03*
Y25212D02*
D03*
Y25409D02*
D03*
Y25606D02*
D03*
Y25803D02*
D03*
D53*
X31053Y18145D02*
D03*
X30856D02*
D03*
X30659D02*
D03*
X30462D02*
D03*
X30265D02*
D03*
X30069D02*
D03*
X29872D02*
D03*
X29675D02*
D03*
X29478D02*
D03*
X29281D02*
D03*
X29084D02*
D03*
X28887D02*
D03*
X28691D02*
D03*
X28494D02*
D03*
X28297D02*
D03*
X28100D02*
D03*
X27903D02*
D03*
X27706D02*
D03*
X27510D02*
D03*
X27313D02*
D03*
X27116D02*
D03*
X26919D02*
D03*
X26722D02*
D03*
X26525D02*
D03*
X26328D02*
D03*
X26132D02*
D03*
X25935D02*
D03*
X25738D02*
D03*
X25541D02*
D03*
X25344D02*
D03*
X25147D02*
D03*
X24950D02*
D03*
X24754D02*
D03*
X24557D02*
D03*
X24360D02*
D03*
X24163D02*
D03*
Y26570D02*
D03*
X24360D02*
D03*
X24557D02*
D03*
X24754D02*
D03*
X24950D02*
D03*
X25147D02*
D03*
X25344D02*
D03*
X25541D02*
D03*
X25738D02*
D03*
X25935D02*
D03*
X26132D02*
D03*
X26328D02*
D03*
X26525D02*
D03*
X26722D02*
D03*
X26919D02*
D03*
X27116D02*
D03*
X27313D02*
D03*
X27510D02*
D03*
X27706D02*
D03*
X27903D02*
D03*
X28100D02*
D03*
X28297D02*
D03*
X28494D02*
D03*
X28691D02*
D03*
X28887D02*
D03*
X29084D02*
D03*
X29281D02*
D03*
X29478D02*
D03*
X29675D02*
D03*
X29872D02*
D03*
X30069D02*
D03*
X30265D02*
D03*
X30462D02*
D03*
X30659D02*
D03*
X30856D02*
D03*
X31053D02*
D03*
D54*
X32960Y19120D02*
D03*
Y19868D02*
D03*
X33786Y19120D02*
D03*
Y19868D02*
D03*
D55*
X37855Y22734D02*
D03*
Y22234D02*
D03*
Y21734D02*
D03*
Y21234D02*
D03*
Y20734D02*
D03*
Y20234D02*
D03*
X40855Y22734D02*
D03*
Y22234D02*
D03*
Y21734D02*
D03*
Y21234D02*
D03*
Y20734D02*
D03*
Y20234D02*
D03*
Y23234D02*
D03*
X37855D02*
D03*
Y23734D02*
D03*
X40855D02*
D03*
M02*
