G04*
G04 #@! TF.GenerationSoftware,Altium Limited,Altium Designer,18.1.7 (191)*
G04*
G04 Layer_Physical_Order=3*
G04 Layer_Color=128*
%FSLAX24Y24*%
%MOIN*%
G70*
G01*
G75*
%ADD25C,0.0250*%
%ADD104C,0.0400*%
%ADD128C,0.0280*%
%ADD129C,0.0390*%
%ADD130C,0.0436*%
G04:AMPARAMS|DCode=131|XSize=63.559mil|YSize=63.559mil|CornerRadius=0mil|HoleSize=0mil|Usage=FLASHONLY|Rotation=0.000|XOffset=0mil|YOffset=0mil|HoleType=Round|Shape=Relief|Width=8mil|Gap=8mil|Entries=4|*
%AMTHD131*
7,0,0,0.0636,0.0476,0.0080,45*
%
%ADD131THD131*%
%ADD132C,0.0475*%
G04:AMPARAMS|DCode=133|XSize=71.433mil|YSize=71.433mil|CornerRadius=0mil|HoleSize=0mil|Usage=FLASHONLY|Rotation=0.000|XOffset=0mil|YOffset=0mil|HoleType=Round|Shape=Relief|Width=8mil|Gap=8mil|Entries=4|*
%AMTHD133*
7,0,0,0.0714,0.0554,0.0080,45*
%
%ADD133THD133*%
%ADD134C,0.0514*%
%ADD135C,0.0460*%
G04:AMPARAMS|DCode=136|XSize=66mil|YSize=66mil|CornerRadius=0mil|HoleSize=0mil|Usage=FLASHONLY|Rotation=0.000|XOffset=0mil|YOffset=0mil|HoleType=Round|Shape=Relief|Width=8mil|Gap=8mil|Entries=4|*
%AMTHD136*
7,0,0,0.0660,0.0500,0.0080,45*
%
%ADD136THD136*%
%ADD140C,0.0593*%
%ADD142C,0.0554*%
%ADD144C,0.1440*%
%ADD145C,0.0440*%
G04:AMPARAMS|DCode=146|XSize=48mil|YSize=48mil|CornerRadius=0mil|HoleSize=0mil|Usage=FLASHONLY|Rotation=0.000|XOffset=0mil|YOffset=0mil|HoleType=Round|Shape=Relief|Width=8mil|Gap=8mil|Entries=4|*
%AMTHD146*
7,0,0,0.0480,0.0320,0.0080,45*
%
%ADD146THD146*%
G04:AMPARAMS|DCode=147|XSize=67.496mil|YSize=67.496mil|CornerRadius=0mil|HoleSize=0mil|Usage=FLASHONLY|Rotation=0.000|XOffset=0mil|YOffset=0mil|HoleType=Round|Shape=Relief|Width=8mil|Gap=8mil|Entries=4|*
%AMTHD147*
7,0,0,0.0675,0.0515,0.0080,45*
%
%ADD147THD147*%
%ADD148C,0.1420*%
%ADD149O,0.1420X0.0377*%
%ADD150C,0.1443*%
G04:AMPARAMS|DCode=151|XSize=75.37mil|YSize=75.37mil|CornerRadius=0mil|HoleSize=0mil|Usage=FLASHONLY|Rotation=0.000|XOffset=0mil|YOffset=0mil|HoleType=Round|Shape=Relief|Width=8mil|Gap=8mil|Entries=4|*
%AMTHD151*
7,0,0,0.0754,0.0594,0.0080,45*
%
%ADD151THD151*%
%ADD152C,0.0790*%
G04:AMPARAMS|DCode=153|XSize=64mil|YSize=64mil|CornerRadius=0mil|HoleSize=0mil|Usage=FLASHONLY|Rotation=0.000|XOffset=0mil|YOffset=0mil|HoleType=Round|Shape=Relief|Width=8mil|Gap=8mil|Entries=4|*
%AMTHD153*
7,0,0,0.0640,0.0480,0.0080,45*
%
%ADD153THD153*%
D25*
X0Y0D02*
X27Y-27D01*
X47257D01*
X47261Y-32D01*
Y49D01*
Y39359D01*
X47263Y39361D01*
X20D02*
X47263D01*
X0Y39340D02*
X20Y39361D01*
X0Y0D02*
Y39340D01*
D104*
X-0Y39369D02*
X0Y0D01*
X-0Y39369D02*
X47246D01*
Y0D02*
Y39369D01*
X0Y0D02*
X47246D01*
D128*
X9178Y7603D02*
D03*
X7713Y7614D02*
D03*
X6282Y7594D02*
D03*
X9315Y22035D02*
D03*
X9239Y5392D02*
D03*
X7789Y5398D02*
D03*
X6383Y5409D02*
D03*
X6378Y4865D02*
D03*
X32658Y12961D02*
D03*
X42702Y6863D02*
D03*
X43394Y6909D02*
D03*
X40767Y29372D02*
D03*
X24613Y27433D02*
D03*
X44523Y11061D02*
D03*
X6627Y30830D02*
D03*
X5411Y30518D02*
D03*
X11072Y30187D02*
D03*
X10299Y30803D02*
D03*
X32643Y19511D02*
D03*
X3394Y29290D02*
D03*
X33606Y10077D02*
D03*
X34106Y9570D02*
D03*
X33324Y9575D02*
D03*
X30986Y12808D02*
D03*
X31306Y11038D02*
D03*
X31446Y12183D02*
D03*
X30791Y14737D02*
D03*
X30383Y14956D02*
D03*
X30280Y27365D02*
D03*
X29849Y27655D02*
D03*
X29472Y27247D02*
D03*
X26603Y27124D02*
D03*
X26244Y27424D02*
D03*
X25627Y27406D02*
D03*
X25375Y27112D02*
D03*
X30562Y25159D02*
D03*
X24337Y27118D02*
D03*
X21632Y25868D02*
D03*
X21491Y25494D02*
D03*
X22198Y25745D02*
D03*
X21887Y25197D02*
D03*
X21907Y24824D02*
D03*
X22402Y24674D02*
D03*
X22706Y24398D02*
D03*
X32302Y23540D02*
D03*
X32309Y23932D02*
D03*
X31236Y23882D02*
D03*
X31142Y22995D02*
D03*
X24317Y22206D02*
D03*
X37654Y23720D02*
D03*
X31260Y23443D02*
D03*
X30293Y20213D02*
D03*
X30309Y20676D02*
D03*
X32342Y18831D02*
D03*
X26043Y9880D02*
D03*
X26030Y8235D02*
D03*
X26036Y8964D02*
D03*
X24291Y23572D02*
D03*
X21780Y20565D02*
D03*
X22219Y20411D02*
D03*
X22809Y19882D02*
D03*
X22502Y19658D02*
D03*
X21932Y19373D02*
D03*
X22534Y20170D02*
D03*
X22244Y19121D02*
D03*
X23822Y17836D02*
D03*
X24505Y17642D02*
D03*
X24674Y17315D02*
D03*
X25014Y17498D02*
D03*
X25350Y17134D02*
D03*
X25676Y17364D02*
D03*
X25362Y19294D02*
D03*
X24320Y19079D02*
D03*
X29061Y19087D02*
D03*
X30112Y19082D02*
D03*
X26109Y18909D02*
D03*
X26186Y17641D02*
D03*
X26537Y18628D02*
D03*
X26710Y17663D02*
D03*
X26921Y18753D02*
D03*
X31284Y21973D02*
D03*
X30932Y19432D02*
D03*
X27057Y5898D02*
D03*
X27035Y5435D02*
D03*
X28886Y7593D02*
D03*
X35660Y14909D02*
D03*
X31646Y13433D02*
D03*
X31628Y13002D02*
D03*
X4438Y9691D02*
D03*
X4972D02*
D03*
X16948Y32934D02*
D03*
X17847Y33043D02*
D03*
X16455Y33020D02*
D03*
X16310Y31989D02*
D03*
X40542Y28482D02*
D03*
X40321Y27693D02*
D03*
X39094Y27411D02*
D03*
X37686Y27398D02*
D03*
X26030Y33907D02*
D03*
X25184Y33731D02*
D03*
X24815Y30265D02*
D03*
X25674Y30387D02*
D03*
X31565Y34194D02*
D03*
X33326Y33783D02*
D03*
X31157Y30750D02*
D03*
X28280Y25989D02*
D03*
X35332Y14888D02*
D03*
X10682Y7074D02*
D03*
X19679Y8483D02*
D03*
X19293Y9443D02*
D03*
X15724Y9951D02*
D03*
X15611Y8970D02*
D03*
X12665Y8781D02*
D03*
X11359Y12357D02*
D03*
X20665Y13422D02*
D03*
X20241Y13167D02*
D03*
X38394Y21813D02*
D03*
X27172Y30403D02*
D03*
X33348Y30140D02*
D03*
X37631Y29009D02*
D03*
X17406Y6778D02*
D03*
X17419Y7564D02*
D03*
X18602Y15670D02*
D03*
X12917Y9928D02*
D03*
X24946Y13649D02*
D03*
X13724Y24581D02*
D03*
X10250Y18573D02*
D03*
X10236Y17666D02*
D03*
X8718Y21678D02*
D03*
X8063Y20550D02*
D03*
X5194Y21000D02*
D03*
X7020Y21753D02*
D03*
X7044Y22035D02*
D03*
X6093Y21879D02*
D03*
X5250Y21813D02*
D03*
X6969Y19706D02*
D03*
X7995Y19986D02*
D03*
X8721Y20704D02*
D03*
X6258Y20968D02*
D03*
X6246Y20216D02*
D03*
X6265Y19444D02*
D03*
X9317Y21085D02*
D03*
X8630Y20036D02*
D03*
X9740Y20063D02*
D03*
X18035Y10959D02*
D03*
X23841Y32203D02*
D03*
X23079Y32183D02*
D03*
X11241Y10748D02*
D03*
X10542D02*
D03*
X5472Y7984D02*
D03*
X6946Y13442D02*
D03*
X7321Y12639D02*
D03*
X7595Y13463D02*
D03*
X8392Y13447D02*
D03*
X8413Y14475D02*
D03*
X7625Y14481D02*
D03*
X18887Y14703D02*
D03*
X18239Y14682D02*
D03*
X17442Y14698D02*
D03*
X17421Y13670D02*
D03*
X18209Y13663D02*
D03*
X17102Y32523D02*
D03*
X17890Y32517D02*
D03*
X17869Y31488D02*
D03*
X17072Y31504D02*
D03*
X16798Y30680D02*
D03*
X16424Y31483D02*
D03*
X31679Y32128D02*
D03*
X30932Y32132D02*
D03*
X38690Y29732D02*
D03*
X37646Y27984D02*
D03*
X38452Y27887D02*
D03*
X38540Y28961D02*
D03*
X42238Y17452D02*
D03*
X21506Y17781D02*
D03*
X20869Y17052D02*
D03*
X1032Y17666D02*
D03*
X1002Y18521D02*
D03*
X1020Y19335D02*
D03*
X1008Y20173D02*
D03*
X1621Y17334D02*
D03*
X2122Y17657D02*
D03*
X2115Y18517D02*
D03*
X2093Y19343D02*
D03*
X2077Y20164D02*
D03*
X14077Y25194D02*
D03*
X5315Y31909D02*
D03*
X4485Y32250D02*
D03*
X11191Y31992D02*
D03*
X12260Y26414D02*
D03*
X12932Y27131D02*
D03*
X11847Y32728D02*
D03*
X3372Y32331D02*
D03*
X2570Y31600D02*
D03*
X11784Y28698D02*
D03*
X10951Y28677D02*
D03*
X14339Y18446D02*
D03*
X13584Y17696D02*
D03*
X5483Y25757D02*
D03*
X5493Y24866D02*
D03*
X3846Y27041D02*
D03*
X3137Y26343D02*
D03*
X2654Y22331D02*
D03*
X1260Y26061D02*
D03*
X488Y26143D02*
D03*
X526Y25306D02*
D03*
X1309D02*
D03*
X6352Y7074D02*
D03*
X7792D02*
D03*
X9252D02*
D03*
X10748Y4865D02*
D03*
X9268D02*
D03*
X7848D02*
D03*
X6121Y7970D02*
D03*
X6902Y7980D02*
D03*
X7561D02*
D03*
X8346D02*
D03*
X8986Y7965D02*
D03*
X10444Y7984D02*
D03*
X9824Y7970D02*
D03*
X10543Y5765D02*
D03*
X9874Y5751D02*
D03*
X9044D02*
D03*
X8414Y5775D02*
D03*
X7627Y5770D02*
D03*
X6969Y5780D02*
D03*
X5483Y5751D02*
D03*
X6162Y5745D02*
D03*
X42676Y7728D02*
D03*
X43359Y7737D02*
D03*
X42400Y16660D02*
D03*
X44983Y16759D02*
D03*
X44956Y19367D02*
D03*
X41729Y18429D02*
D03*
X45362Y19362D02*
D03*
X45547Y18599D02*
D03*
X44028Y16781D02*
D03*
X43687D02*
D03*
X39342Y14304D02*
D03*
X37665Y12890D02*
D03*
X37704Y10921D02*
D03*
X37679Y9025D02*
D03*
X36759Y8049D02*
D03*
X36773Y9222D02*
D03*
X36765Y9951D02*
D03*
X36786Y11172D02*
D03*
Y11920D02*
D03*
X36759Y13146D02*
D03*
X36742Y13948D02*
D03*
X36773Y14943D02*
D03*
X37718Y14794D02*
D03*
X34206Y19876D02*
D03*
X32751Y19869D02*
D03*
X40592Y23735D02*
D03*
X40573Y23243D02*
D03*
X40583Y22731D02*
D03*
X40573Y22238D02*
D03*
X40564Y21745D02*
D03*
X40546Y21252D02*
D03*
X40583Y20742D02*
D03*
Y20230D02*
D03*
X38276Y24454D02*
D03*
X38411Y23528D02*
D03*
X38394Y22901D02*
D03*
X38408Y22471D02*
D03*
X38394Y21058D02*
D03*
X38391Y20365D02*
D03*
X38236Y19458D02*
D03*
X24006Y21228D02*
D03*
X24638Y19910D02*
D03*
X23882Y19469D02*
D03*
X28501Y19052D02*
D03*
X30885Y20161D02*
D03*
X30875Y21143D02*
D03*
X31304Y24243D02*
D03*
X31335Y25417D02*
D03*
X30462Y26062D02*
D03*
X30572Y24696D02*
D03*
X24472Y24288D02*
D03*
X24970Y25506D02*
D03*
X26476Y25431D02*
D03*
X25690Y25483D02*
D03*
X24205Y25476D02*
D03*
X24494Y21668D02*
D03*
X30728Y25512D02*
D03*
X29548Y25597D02*
D03*
X26022Y13616D02*
D03*
X26465Y8246D02*
D03*
X27939Y14117D02*
D03*
X29576Y13439D02*
D03*
X30805Y10428D02*
D03*
X33580Y14956D02*
D03*
X33921D02*
D03*
X35439Y16773D02*
D03*
X35255Y17537D02*
D03*
X32354Y10134D02*
D03*
X31665Y10009D02*
D03*
X32268Y9225D02*
D03*
X31622Y16603D02*
D03*
X34849Y17542D02*
D03*
X34876Y14934D02*
D03*
X32293Y14835D02*
D03*
X27687Y15054D02*
D03*
X25466Y9682D02*
D03*
X32269Y8609D02*
D03*
X29454Y9433D02*
D03*
X29414Y11283D02*
D03*
X28814Y11306D02*
D03*
X27159Y10776D02*
D03*
X32483Y13797D02*
D03*
X27310Y9858D02*
D03*
X24931Y12909D02*
D03*
X24943Y12150D02*
D03*
X24921Y11360D02*
D03*
X24961Y10594D02*
D03*
X26035Y12928D02*
D03*
Y12156D02*
D03*
X26005Y11340D02*
D03*
X26035Y10609D02*
D03*
X29614Y10843D02*
D03*
X28820D02*
D03*
X28328Y10861D02*
D03*
X28304Y11661D02*
D03*
X28783Y12219D02*
D03*
X29543Y12214D02*
D03*
X30008Y12120D02*
D03*
X30022Y11367D02*
D03*
X33384Y9076D02*
D03*
X28555Y9793D02*
D03*
X29461Y9797D02*
D03*
X30658Y10022D02*
D03*
X30249Y8293D02*
D03*
X31435Y8321D02*
D03*
X28839Y8883D02*
D03*
X29124Y23441D02*
D03*
Y22574D02*
D03*
Y21708D02*
D03*
X26092Y20842D02*
D03*
Y21275D02*
D03*
Y21708D02*
D03*
Y22141D02*
D03*
Y22574D02*
D03*
Y23007D02*
D03*
Y23441D02*
D03*
Y23874D02*
D03*
X26525Y20842D02*
D03*
Y21275D02*
D03*
Y21708D02*
D03*
Y22141D02*
D03*
Y22574D02*
D03*
Y23007D02*
D03*
Y23441D02*
D03*
Y23874D02*
D03*
X26958Y20842D02*
D03*
Y21275D02*
D03*
Y21708D02*
D03*
Y22141D02*
D03*
Y22574D02*
D03*
Y23007D02*
D03*
Y23441D02*
D03*
Y23874D02*
D03*
X27391Y20842D02*
D03*
Y21275D02*
D03*
Y21708D02*
D03*
Y22141D02*
D03*
Y22574D02*
D03*
Y23007D02*
D03*
Y23441D02*
D03*
Y23874D02*
D03*
X27824Y20842D02*
D03*
Y21275D02*
D03*
Y21708D02*
D03*
Y22141D02*
D03*
Y22574D02*
D03*
Y23007D02*
D03*
Y23441D02*
D03*
Y23874D02*
D03*
X28258Y20842D02*
D03*
Y21275D02*
D03*
Y21708D02*
D03*
Y22141D02*
D03*
Y22574D02*
D03*
Y23007D02*
D03*
Y23441D02*
D03*
Y23874D02*
D03*
X28691Y20842D02*
D03*
Y21275D02*
D03*
Y21708D02*
D03*
Y22141D02*
D03*
Y22574D02*
D03*
Y23007D02*
D03*
Y23441D02*
D03*
Y23874D02*
D03*
X29124Y20842D02*
D03*
Y21275D02*
D03*
Y22141D02*
D03*
Y23007D02*
D03*
Y23874D02*
D03*
D129*
X1466Y18650D02*
X1904D01*
X6290Y16833D02*
X8024Y18567D01*
X3079Y16833D02*
X6290D01*
X2520Y17392D02*
X3079Y16833D01*
X2520Y17392D02*
Y18112D01*
X1997Y18635D02*
X2520Y18112D01*
X8Y17192D02*
X1466Y18650D01*
X8024Y18567D02*
Y22279D01*
X8943Y23198D01*
X10781D01*
X12197Y24614D01*
Y27140D01*
X11009Y28328D02*
X12197Y27140D01*
X-54Y28328D02*
X11009D01*
X39937Y12731D02*
X40137Y12931D01*
X38879Y12926D02*
X39074Y12731D01*
X39937D01*
X38879Y12926D02*
Y15301D01*
X44474Y8143D02*
X47312D01*
X43904Y8713D02*
X44474Y8143D01*
X43904Y8713D02*
Y11430D01*
X43020Y12313D02*
X43904Y11430D01*
X42403Y12931D02*
X43020Y12313D01*
X40620Y12931D02*
X42403D01*
X40137D02*
X40620D01*
X38879Y15301D02*
X39603Y16025D01*
X44499D01*
X44677Y16203D01*
Y17512D01*
X45134Y17968D01*
X47186D01*
X26027Y9115D02*
X26553D01*
X28669D01*
X26027D02*
Y15033D01*
X26876D01*
X28028Y13880D01*
X30057D01*
X30482Y13455D01*
Y13063D02*
Y13455D01*
X28787Y11369D02*
X30482Y13063D01*
X28787Y9233D02*
Y11369D01*
X28669Y9115D02*
X28787Y9233D01*
D130*
X5435Y33942D02*
D03*
X6435D02*
D03*
X7435D02*
D03*
X8435D02*
D03*
X9435D02*
D03*
D131*
X4435D02*
D03*
D132*
X5600Y27210D02*
D03*
X7600D02*
D03*
D133*
X16611Y27243D02*
D03*
X39488Y13272D02*
D03*
D134*
X19611Y27243D02*
D03*
Y26243D02*
D03*
X18611Y27243D02*
D03*
Y26243D02*
D03*
X17611Y27243D02*
D03*
Y26243D02*
D03*
X16611D02*
D03*
X15611Y27243D02*
D03*
Y26243D02*
D03*
X39488Y9272D02*
D03*
Y10272D02*
D03*
Y11272D02*
D03*
Y12272D02*
D03*
X40489Y9772D02*
D03*
Y10772D02*
D03*
Y11772D02*
D03*
Y12772D02*
D03*
Y13772D02*
D03*
D135*
X1180Y32030D02*
D03*
Y31030D02*
D03*
Y30030D02*
D03*
Y29030D02*
D03*
X3198Y18548D02*
D03*
Y19548D02*
D03*
D136*
Y17548D02*
D03*
Y20548D02*
D03*
D140*
X13420Y3153D02*
D03*
X12875Y2035D02*
D03*
X12330Y3153D02*
D03*
X11784Y2035D02*
D03*
X11239Y3153D02*
D03*
X10694Y2035D02*
D03*
X10148Y3153D02*
D03*
X9603Y2035D02*
D03*
X9058Y3153D02*
D03*
X26346D02*
D03*
X25801Y2035D02*
D03*
X25256Y3153D02*
D03*
X24710Y2035D02*
D03*
X24165Y3153D02*
D03*
X23620Y2035D02*
D03*
X23075Y3153D02*
D03*
X22529Y2035D02*
D03*
X21984Y3153D02*
D03*
X39272D02*
D03*
X38727Y2035D02*
D03*
X38182Y3153D02*
D03*
X37637Y2035D02*
D03*
X37091Y3153D02*
D03*
X36546Y2035D02*
D03*
X36001Y3153D02*
D03*
X35456Y2035D02*
D03*
X34910Y3153D02*
D03*
X44079Y30955D02*
D03*
X45197Y30409D02*
D03*
X44079Y29864D02*
D03*
X45197Y29319D02*
D03*
X44079Y28774D02*
D03*
X45197Y28228D02*
D03*
X44079Y27683D02*
D03*
X45197Y27138D02*
D03*
X44079Y26593D02*
D03*
X21280Y36307D02*
D03*
X21825Y37425D02*
D03*
X22370Y36307D02*
D03*
X22916Y37425D02*
D03*
X23461Y36307D02*
D03*
X24006Y37425D02*
D03*
X24552Y36307D02*
D03*
X25097Y37425D02*
D03*
X25642Y36307D02*
D03*
X8048D02*
D03*
X8594Y37425D02*
D03*
X9139Y36307D02*
D03*
X9684Y37425D02*
D03*
X10230Y36307D02*
D03*
X10775Y37425D02*
D03*
X11320Y36307D02*
D03*
X11865Y37425D02*
D03*
X12411Y36307D02*
D03*
X3101Y8225D02*
D03*
X1983Y8770D02*
D03*
X3101Y9316D02*
D03*
X1983Y9861D02*
D03*
X3101Y10406D02*
D03*
X1983Y10952D02*
D03*
X3101Y11497D02*
D03*
X1983Y12042D02*
D03*
X3101Y12587D02*
D03*
X8554Y25090D02*
D03*
X39762Y32962D02*
D03*
X11531Y14854D02*
D03*
X38025Y17748D02*
D03*
X42107Y5428D02*
D03*
X38874Y36307D02*
D03*
X38328Y37425D02*
D03*
X37783Y36307D02*
D03*
X37238Y37425D02*
D03*
X36693Y36307D02*
D03*
X36147Y37425D02*
D03*
X35602Y36307D02*
D03*
X35057Y37425D02*
D03*
X34511Y36307D02*
D03*
D142*
X44620Y9911D02*
D03*
Y14132D02*
D03*
D144*
X42989Y13772D02*
D03*
Y9272D02*
D03*
D145*
X9320Y29620D02*
D03*
Y31870D02*
D03*
Y30770D02*
D03*
X8320Y31370D02*
D03*
Y30220D02*
D03*
D146*
X10524Y26427D02*
D03*
X40243Y29524D02*
D03*
X6639Y7326D02*
D03*
X6709Y5066D02*
D03*
X39317Y15131D02*
D03*
X40238Y29238D02*
D03*
X46303Y16703D02*
D03*
X29137Y7863D02*
D03*
X31055Y17709D02*
D03*
X15535Y9457D02*
D03*
X22863Y25891D02*
D03*
X33557Y25022D02*
D03*
X24238Y22824D02*
D03*
X33581Y22310D02*
D03*
X33588Y21543D02*
D03*
X25461Y7964D02*
D03*
X25466Y8611D02*
D03*
X22924Y19036D02*
D03*
X25091Y18653D02*
D03*
X24163Y18649D02*
D03*
X31254Y18948D02*
D03*
X33591Y23449D02*
D03*
X31317Y21470D02*
D03*
X33896Y18901D02*
D03*
X31123Y19781D02*
D03*
X31317Y20291D02*
D03*
X28123Y18646D02*
D03*
X29914Y18645D02*
D03*
X27746Y8285D02*
D03*
X32121Y13200D02*
D03*
X25219Y30235D02*
D03*
X28306Y25255D02*
D03*
X15243Y31236D02*
D03*
X16386Y32515D02*
D03*
X25668Y33798D02*
D03*
X32269Y30060D02*
D03*
X19214Y8956D02*
D03*
X12135Y12317D02*
D03*
X11887Y9935D02*
D03*
X6830Y14454D02*
D03*
X12622Y24150D02*
D03*
X12090Y23724D02*
D03*
X10528Y24636D02*
D03*
X6948Y20575D02*
D03*
X8280Y21265D02*
D03*
X9206Y19602D02*
D03*
X8315Y22041D02*
D03*
X16257Y7146D02*
D03*
X23408Y33213D02*
D03*
X10781Y11770D02*
D03*
X5765Y13195D02*
D03*
Y12897D02*
D03*
X20068Y14950D02*
D03*
Y15247D02*
D03*
X18925Y13671D02*
D03*
X15243Y30939D02*
D03*
X32553Y33910D02*
D03*
X31499Y33735D02*
D03*
X39052Y27968D02*
D03*
X23315Y17791D02*
D03*
X22669Y17099D02*
D03*
X1625Y19043D02*
D03*
X1619Y18216D02*
D03*
X10783Y25243D02*
D03*
X11209Y27118D02*
D03*
X45876Y16715D02*
D03*
X11879Y17679D02*
D03*
X12554Y18424D02*
D03*
X8088Y7343D02*
D03*
X9564Y7381D02*
D03*
X9605Y5126D02*
D03*
X8137Y5140D02*
D03*
X5265Y7066D02*
D03*
X5227Y4850D02*
D03*
X44529Y11874D02*
D03*
X42165Y19260D02*
D03*
X42625Y19277D02*
D03*
X28254Y29471D02*
D03*
X39343Y19413D02*
D03*
X39329Y20143D02*
D03*
X39334Y20860D02*
D03*
X39310Y21591D02*
D03*
Y22317D02*
D03*
X39291Y23014D02*
D03*
X39320Y23778D02*
D03*
X39324Y24463D02*
D03*
X23899Y19897D02*
D03*
X31140Y22443D02*
D03*
X30535Y21860D02*
D03*
X23899Y24425D02*
D03*
X25147Y26067D02*
D03*
X24163D02*
D03*
X25738Y18649D02*
D03*
X33545Y24162D02*
D03*
X32417Y25641D02*
D03*
X23899Y21866D02*
D03*
Y23834D02*
D03*
X24557Y26067D02*
D03*
X25541D02*
D03*
X26525D02*
D03*
X29478D02*
D03*
X31053D02*
D03*
X31821Y26109D02*
D03*
X31317Y24818D02*
D03*
X30856Y18649D02*
D03*
X28887D02*
D03*
X30094Y13299D02*
D03*
X26726Y14454D02*
D03*
X26413Y14206D02*
D03*
X26433Y14669D02*
D03*
X28019Y13471D02*
D03*
X29076D02*
D03*
X27254Y12827D02*
D03*
X32518Y17452D02*
D03*
X32058Y17435D02*
D03*
X25381Y14405D02*
D03*
X25488Y12017D02*
D03*
X25480Y11419D02*
D03*
X25487Y10504D02*
D03*
X25471Y13039D02*
D03*
X27200Y11786D02*
D03*
X27665Y14674D02*
D03*
X25479Y13792D02*
D03*
X28376Y9458D02*
D03*
X29587Y8165D02*
D03*
D147*
X6600Y27210D02*
D03*
D148*
X45276Y1969D02*
D03*
X1969Y37402D02*
D03*
Y1969D02*
D03*
X45276Y37402D02*
D03*
D149*
X1125Y24395D02*
D03*
Y21521D02*
D03*
D150*
X6320Y2594D02*
D03*
X16158D02*
D03*
X19246D02*
D03*
X29084D02*
D03*
X32172D02*
D03*
X42011D02*
D03*
X44638Y23854D02*
D03*
Y33693D02*
D03*
X28380Y36866D02*
D03*
X18542D02*
D03*
X15149D02*
D03*
X5310D02*
D03*
X2542Y15326D02*
D03*
Y5487D02*
D03*
X31773Y36866D02*
D03*
X41612D02*
D03*
D151*
X44620Y8911D02*
D03*
Y13132D02*
D03*
D152*
X41788Y14571D02*
D03*
Y8473D02*
D03*
D153*
X11195Y20247D02*
D03*
X13445D02*
D03*
X12345D02*
D03*
X12945Y21247D02*
D03*
X11795D02*
D03*
M02*
