G04*
G04 #@! TF.GenerationSoftware,Altium Limited,Altium Designer,18.1.7 (191)*
G04*
G04 Layer_Physical_Order=4*
G04 Layer_Color=16711680*
%FSLAX24Y24*%
%MOIN*%
G70*
G01*
G75*
%ADD10C,0.0100*%
%ADD15C,0.0200*%
%ADD21C,0.0080*%
%ADD23C,0.0150*%
%ADD25C,0.0250*%
%ADD29R,0.0472X0.0354*%
%ADD37R,0.0512X0.0276*%
%ADD38R,0.0354X0.0472*%
%ADD39R,0.0276X0.0512*%
%ADD103C,0.0120*%
%ADD105C,0.0070*%
%ADD106C,0.0300*%
%ADD114C,0.0600*%
%ADD115C,0.0591*%
%ADD116R,0.0591X0.0591*%
%ADD117C,0.2362*%
%ADD118O,0.1457X0.0354*%
%ADD119C,0.1874*%
%ADD120R,0.0669X0.0669*%
%ADD121C,0.0669*%
%ADD122R,0.0669X0.0669*%
%ADD123C,0.0787*%
%ADD124C,0.0866*%
%ADD125C,0.0551*%
%ADD126C,0.1280*%
%ADD127C,0.0500*%
%ADD128C,0.0280*%
%ADD154R,0.0492X0.0335*%
%ADD155R,0.2153X0.1312*%
%ADD156R,0.4235X0.0581*%
%ADD157R,0.2797X0.4129*%
%ADD158R,0.3266X0.2746*%
%ADD159R,0.0899X0.3490*%
D10*
X17084Y7564D02*
X17419D01*
X17071Y7577D02*
X17084Y7564D01*
X17100Y6778D02*
X17406D01*
X17071Y6807D02*
X17100Y6778D01*
X8718Y21678D02*
Y22045D01*
X8706Y22057D02*
X8718Y22045D01*
X8714Y20712D02*
X8721Y20704D01*
X8714Y20712D02*
Y21062D01*
X8706Y21070D02*
X8714Y21062D01*
X31271Y7527D02*
X31321Y7577D01*
X30476Y7527D02*
X31271D01*
D15*
X26625Y8406D02*
Y9581D01*
X26465Y8246D02*
X26625Y8406D01*
X26030Y8235D02*
X26041Y8246D01*
X16541Y27391D02*
Y27954D01*
X15611Y27243D02*
Y27864D01*
X38247Y28983D02*
X38880D01*
X38247Y28983D02*
X38247Y28983D01*
X26041Y8246D02*
X26465D01*
D21*
X6378Y4631D02*
Y4865D01*
X24539Y27433D02*
X24613D01*
X24330Y27643D02*
X24539Y27433D01*
X45337Y15609D02*
X45964Y14983D01*
Y13477D02*
Y14983D01*
X45873Y13387D02*
X45964Y13477D01*
X45350Y16041D02*
X46220Y15170D01*
Y8970D02*
Y15170D01*
X32784Y18726D02*
Y19364D01*
X32643Y19505D02*
X32784Y19364D01*
X32643Y19505D02*
Y19511D01*
X45587Y13387D02*
X45873D01*
X45560Y13360D02*
X45587Y13387D01*
X31663Y15609D02*
X45337D01*
X31528Y16041D02*
X45350D01*
X45620Y8970D02*
X46220D01*
X30791Y14737D02*
X31663Y15609D01*
X30516Y15030D02*
X31528Y16041D01*
X30511Y15030D02*
X30516D01*
X30437Y14956D02*
X30511Y15030D01*
X30383Y14956D02*
X30437D01*
X30280Y27365D02*
Y28130D01*
X29472Y28910D02*
X30402Y29839D01*
X29472Y27247D02*
Y28910D01*
X29849Y27655D02*
Y28443D01*
X25674Y28180D02*
Y30387D01*
Y28180D02*
X26233Y27620D01*
Y27435D02*
Y27620D01*
Y27435D02*
X26244Y27424D01*
X26030Y28419D02*
Y33907D01*
X26639Y27161D02*
Y27809D01*
X26603Y27124D02*
X26639Y27161D01*
X26030Y28419D02*
X26639Y27809D01*
X24815Y28280D02*
X25554Y27541D01*
Y27533D02*
Y27541D01*
Y27533D02*
X25627Y27460D01*
Y27406D02*
Y27460D01*
X24419Y28283D02*
Y31093D01*
Y28283D02*
X25375Y27328D01*
Y27112D02*
Y27328D01*
X35708Y25420D02*
X37686Y27398D01*
X33250Y25420D02*
X35708D01*
X32989Y25159D02*
X33250Y25420D01*
X30562Y25159D02*
X32989D01*
X30402Y29839D02*
Y33567D01*
X21766Y27643D02*
X24330D01*
X21677Y27428D02*
X24027D01*
X24337Y27118D01*
X20986Y28423D02*
X21766Y27643D01*
X20772Y28334D02*
X21677Y27428D01*
X22517Y24209D02*
X22706Y24398D01*
X15584Y24209D02*
X22517D01*
X13518Y26276D02*
X15584Y24209D01*
X22203Y24476D02*
X22402Y24674D01*
X15688Y24476D02*
X22203D01*
X13780Y26384D02*
X15688Y24476D01*
X15725Y24824D02*
X21907D01*
X14052Y26497D02*
X15725Y24824D01*
X15779Y25197D02*
X21887D01*
X14354Y26622D02*
X15779Y25197D01*
X20798Y25494D02*
X21491D01*
X20337Y25956D02*
X20798Y25494D01*
X20337Y25956D02*
Y29805D01*
X20772Y25868D02*
X21632D01*
X20557Y26082D02*
X20772Y25868D01*
X20557Y26082D02*
Y29897D01*
X23006Y25891D02*
X23223Y25674D01*
X22863Y25891D02*
X23006D01*
X13780Y26384D02*
Y32486D01*
X14052Y26497D02*
Y32599D01*
X14354Y26622D02*
Y32724D01*
X13518Y26276D02*
Y32378D01*
X11343Y34923D02*
X13780Y32486D01*
X11456Y35195D02*
X14052Y32599D01*
X11581Y35498D02*
X14354Y32724D01*
X11235Y34661D02*
X13518Y32378D01*
X8342Y34923D02*
X11343D01*
X7435Y34016D02*
X8342Y34923D01*
X7688Y35195D02*
X11456D01*
X6435Y33942D02*
X7688Y35195D01*
X9071Y34661D02*
X11235D01*
X8435Y34025D02*
X9071Y34661D01*
X8435Y33942D02*
Y34025D01*
X7435Y33942D02*
Y34016D01*
X5534Y34225D02*
X6806Y35498D01*
X11581D01*
X5534Y34041D02*
Y34225D01*
X5435Y33942D02*
X5534Y34041D01*
X30280Y28130D02*
X31683Y29534D01*
X29849Y28443D02*
X31157Y29751D01*
X20772Y28334D02*
Y29985D01*
X20986Y28423D02*
Y30074D01*
X19883Y30873D02*
X20772Y29985D01*
X19669Y30785D02*
X20557Y29897D01*
X19449Y30693D02*
X20337Y29805D01*
X20098Y30962D02*
X20986Y30074D01*
X32638Y23876D02*
X36773D01*
X32302Y23540D02*
X32638Y23876D01*
X32816Y24439D02*
X36841D01*
X32309Y23932D02*
X32816Y24439D01*
X40488Y27283D02*
X40735Y27531D01*
X40181Y27283D02*
X40488D01*
X36773Y23876D02*
X40181Y27283D01*
X40094Y27693D02*
X40321D01*
X36841Y24439D02*
X40094Y27693D01*
X32552Y24671D02*
X36355D01*
X31762Y23882D02*
X32552Y24671D01*
X31236Y23882D02*
X31762D01*
X36355Y24671D02*
X39094Y27411D01*
X37463Y22995D02*
X37995Y23528D01*
X31142Y22995D02*
X37463D01*
X37995Y23528D02*
X38411D01*
X24200Y22786D02*
X24238Y22824D01*
X24024Y22786D02*
X24200D01*
X23695Y22456D02*
X24024Y22786D01*
X23596Y22456D02*
X23695D01*
X37133Y23199D02*
X37654Y23720D01*
X31504Y23199D02*
X37133D01*
X31260Y23443D02*
X31504Y23199D01*
X32321Y18263D02*
X32784Y18726D01*
X31967Y18263D02*
X32321D01*
X28153Y14449D02*
X31967Y18263D01*
X27493Y19649D02*
X28123Y20279D01*
X27493Y15803D02*
Y19649D01*
X26672Y14982D02*
X27493Y15803D01*
X28123Y20279D02*
X29966D01*
X27280Y13706D02*
Y15206D01*
X26320Y12745D02*
X27280Y13706D01*
X26320Y10093D02*
Y12745D01*
X27280Y15206D02*
X27750Y15675D01*
X25121Y8964D02*
X26036D01*
X24671Y9414D02*
X25121Y8964D01*
X24671Y9414D02*
Y11464D01*
X24681Y11473D02*
Y14380D01*
X24671Y11464D02*
X24681Y11473D01*
X25283Y14982D02*
X26672D01*
X24681Y14380D02*
X25283Y14982D01*
X24469Y14756D02*
X24953Y15239D01*
X24469Y8159D02*
Y14756D01*
Y8159D02*
X25096Y7532D01*
X24205Y14921D02*
X24809Y15526D01*
X24205Y9646D02*
Y14921D01*
X23043Y8483D02*
X24205Y9646D01*
X26430Y15239D02*
X27206Y16015D01*
X24953Y15239D02*
X26430D01*
X27750Y15675D02*
Y19584D01*
X28220Y20055D01*
X29966Y20279D02*
X30309Y20621D01*
Y20676D01*
X28220Y20055D02*
X30136D01*
X30293Y20213D01*
X32342Y18831D02*
Y19081D01*
X32229Y19194D02*
X32342Y19081D01*
X27937Y14291D02*
X28056D01*
X28153Y14389D02*
Y14449D01*
X28056Y14291D02*
X28153Y14389D01*
X26179Y9952D02*
X26320Y10093D01*
X26097Y9880D02*
X26168Y9952D01*
X26179D01*
X26043Y9880D02*
X26097D01*
X25096Y7532D02*
X27611D01*
X19055Y18598D02*
X23060D01*
X17622Y17165D02*
X19055Y18598D01*
X23060D02*
X23822Y17836D01*
X19492Y19318D02*
X21785D01*
X21802Y19335D01*
X21894D01*
X21932Y19373D01*
X17798Y17624D02*
X19492Y19318D01*
X14109Y13935D02*
X17798Y17624D01*
X17648Y17760D02*
X19546Y19658D01*
X17403Y17788D02*
X19523Y19908D01*
X19404Y20104D02*
X22468D01*
X17181Y17880D02*
X19404Y20104D01*
X19284Y20311D02*
X22119D01*
X16949Y17976D02*
X19284Y20311D01*
X16763Y18157D02*
X19171Y20565D01*
X13556Y14950D02*
X16763Y18157D01*
X13556Y14846D02*
Y14950D01*
X19171Y20565D02*
X21780D01*
X22468Y20104D02*
X22534Y20170D01*
X22119Y20311D02*
X22219Y20411D01*
X22783Y19908D02*
X22809Y19882D01*
X19523Y19908D02*
X22783D01*
X19546Y19658D02*
X22502D01*
X17648Y17757D02*
Y17760D01*
X17598Y17707D02*
X17648Y17757D01*
X22924Y19036D02*
X23159D01*
X23233Y19110D01*
X14309Y13852D02*
X17622Y17165D01*
X14109Y6814D02*
Y13935D01*
X13572Y6277D02*
X14109Y6814D01*
X23543Y17569D02*
X24378D01*
X24451Y17642D01*
X24505D01*
X14511Y13769D02*
X17380Y16638D01*
X22613D02*
X23543Y17569D01*
X17380Y16638D02*
X22613D01*
X14723Y13681D02*
X17393Y16350D01*
X17407Y16364D01*
X22740D01*
X23691Y17315D01*
X24674D01*
X24787Y17047D02*
X25014Y17274D01*
X23792Y17047D02*
X24787D01*
X22896Y16151D02*
X23792Y17047D01*
X25014Y17274D02*
Y17498D01*
X14942Y13590D02*
X17503Y16151D01*
X22896D01*
X21600Y14452D02*
X23981Y16833D01*
X25235D02*
X25339Y16937D01*
Y17123D01*
X25350Y17134D01*
X23981Y16833D02*
X25235D01*
X25676Y16882D02*
Y17364D01*
X15649Y8970D02*
X17408D01*
X25380Y16586D02*
X25676Y16882D01*
X25936Y16586D02*
Y17744D01*
X26109Y17917D01*
X25639Y16290D02*
X25936Y16586D01*
X24163Y18649D02*
X24347Y18465D01*
X20254Y14452D02*
X21600D01*
X19277Y13476D02*
X20254Y14452D01*
X19277Y11271D02*
Y13476D01*
X17957Y9951D02*
X19277Y11271D01*
X15724Y9951D02*
X17957D01*
X24188Y16586D02*
X25380D01*
X21800Y14198D02*
X24188Y16586D01*
X20665Y13422D02*
X21913D01*
X20481Y13868D02*
X21927D01*
X26109Y17917D02*
Y18909D01*
X20443Y14198D02*
X21800D01*
X19591Y13346D02*
X20443Y14198D01*
X19591Y11153D02*
Y13346D01*
X17408Y8970D02*
X19591Y11153D01*
X20241Y13628D02*
X20481Y13868D01*
X24348Y16290D02*
X25639D01*
X21927Y13868D02*
X24348Y16290D01*
X26460Y18551D02*
X26537Y18628D01*
X26175Y17576D02*
X26186Y17587D01*
X26175Y16408D02*
Y17576D01*
X25871Y16104D02*
X26175Y16408D01*
X26186Y17587D02*
Y17641D01*
X24595Y16104D02*
X25871D01*
X21913Y13422D02*
X24595Y16104D01*
X26460Y16328D02*
Y18551D01*
X25957Y15825D02*
X26460Y16328D01*
X24735Y15825D02*
X25957D01*
X23849Y14939D02*
X24735Y15825D01*
X23849Y10419D02*
Y14939D01*
X22872Y9443D02*
X23849Y10419D01*
X19293Y9443D02*
X22872D01*
X24809Y15526D02*
X26220D01*
X19679Y8483D02*
X23043D01*
X28839Y8883D02*
X28942Y8781D01*
X26921Y18753D02*
X27206Y18468D01*
X26710Y16016D02*
Y17663D01*
X26220Y15526D02*
X26710Y16016D01*
X27206Y16015D02*
Y18468D01*
X31958Y7713D02*
X32270D01*
X31802Y7869D02*
X31958Y7713D01*
X31802Y7869D02*
Y8699D01*
X27611Y7532D02*
X28752Y8673D01*
X28736Y8690D02*
X28752Y8673D01*
X28736Y8690D02*
X28851D01*
X31317Y21470D02*
X31356Y21432D01*
Y21373D02*
Y21432D01*
Y21373D02*
X31441Y21288D01*
X31599D01*
X28123Y18646D02*
X28242D01*
X29914Y18408D02*
Y18645D01*
X4157Y9411D02*
X4438Y9691D01*
X4157Y2112D02*
Y9411D01*
X4573Y9293D02*
X4972Y9691D01*
X4573Y2411D02*
Y9293D01*
Y2411D02*
X5620Y1364D01*
X5282Y987D02*
X8556D01*
X4157Y2112D02*
X5282Y987D01*
X5620Y1364D02*
X8036D01*
X9745Y3073D01*
X10069D01*
X10148Y3153D01*
X8556Y987D02*
X9603Y2035D01*
X18980Y31989D02*
X19449Y31520D01*
Y30693D02*
Y31520D01*
X16310Y31989D02*
X18980D01*
X17346Y33424D02*
X18493D01*
X16948Y33025D02*
X17346Y33424D01*
X16948Y32934D02*
Y33025D01*
X17080Y33811D02*
X18517D01*
X16455Y33186D02*
X17080Y33811D01*
X16455Y33020D02*
Y33186D01*
X20098Y30962D02*
Y32230D01*
X18517Y33811D02*
X20098Y32230D01*
X19883Y30873D02*
Y32033D01*
X18493Y33424D02*
X19883Y32033D01*
X19669Y30785D02*
Y31836D01*
X18463Y33043D02*
X19669Y31836D01*
X17847Y33043D02*
X18463D01*
X40542Y28482D02*
X40735Y28288D01*
Y27531D02*
Y28288D01*
X24419Y31093D02*
X25184Y31858D01*
Y33731D01*
X24815Y28280D02*
Y30265D01*
X30402Y33567D02*
X31028Y34194D01*
X31565D01*
X31683Y29534D02*
Y31049D01*
X33326Y32691D01*
Y33783D01*
X31157Y29751D02*
Y30750D01*
X13448Y14475D02*
X16949Y17976D01*
X13260Y14395D02*
X13368D01*
X13448Y14475D01*
X12665Y13800D02*
X13260Y14395D01*
X13436Y14726D02*
X13556Y14846D01*
X13074Y14726D02*
X13436D01*
X11359Y13011D02*
X13074Y14726D01*
X13713Y14099D02*
X17403Y17788D01*
X13909Y14018D02*
X17598Y17707D01*
X13491Y14191D02*
X17181Y17880D01*
X13491Y7070D02*
Y14191D01*
X13713Y6978D02*
Y14099D01*
X14942Y6469D02*
Y13590D01*
X14511Y6648D02*
Y13769D01*
X14309Y6731D02*
Y13852D01*
X14723Y6560D02*
Y13681D01*
X13909Y6897D02*
Y14018D01*
X13489Y6477D02*
X13909Y6897D01*
X13316Y6894D02*
X13491Y7070D01*
X13408Y6672D02*
X13713Y6978D01*
X12408Y4545D02*
X14511Y6648D01*
X12587Y4113D02*
X14942Y6469D01*
X12325Y4746D02*
X14309Y6731D01*
X12496Y4332D02*
X14723Y6560D01*
X6896Y4113D02*
X12587D01*
X6378Y4631D02*
X6896Y4113D01*
X10883Y4746D02*
X12325D01*
X10765Y4865D02*
X10883Y4746D01*
X10748Y4865D02*
X10765D01*
X8380Y4332D02*
X12496D01*
X7848Y4865D02*
X8380Y4332D01*
X9268Y4865D02*
X9588Y4545D01*
X12408D01*
X10861Y6894D02*
X13316D01*
X10682Y7074D02*
X10861Y6894D01*
X9653Y6672D02*
X13408D01*
X8389Y6477D02*
X13489D01*
X7149Y6277D02*
X13572D01*
X9252Y7074D02*
X9653Y6672D01*
X7792Y7074D02*
X8389Y6477D01*
X6352Y7074D02*
X7149Y6277D01*
X15649Y9008D02*
X15736D01*
X15611Y8970D02*
X15649Y9008D01*
X12665Y8781D02*
Y13800D01*
X11359Y12357D02*
Y13011D01*
X20241Y13167D02*
Y13628D01*
X36786Y11920D02*
X36946Y12080D01*
X37414D01*
X36765Y9951D02*
X36768D01*
X36912Y10095D01*
X37414D01*
X36773Y8063D02*
X36916Y8206D01*
X36759Y8049D02*
X36773Y8063D01*
X36916Y8206D02*
X37414D01*
X36773Y8063D02*
Y9222D01*
X36765Y9951D02*
X36786Y9972D01*
Y11172D01*
X36759Y11946D02*
X36786Y11920D01*
X36759Y11946D02*
Y13146D01*
X36742Y14912D02*
X36773Y14943D01*
X36742Y13948D02*
Y14912D01*
Y13948D02*
X36769Y13975D01*
X37414D01*
X23895Y19901D02*
X23899Y19897D01*
X23523Y19901D02*
X23895D01*
X23503Y19921D02*
X23523Y19901D01*
X28242Y18646D02*
X28268Y18620D01*
X31335Y25417D02*
X31547D01*
X31562Y25432D01*
X31621D01*
X31758Y25569D01*
Y25628D01*
X24347Y18385D02*
Y18465D01*
X23616Y24425D02*
X23899D01*
X24163Y26067D02*
X24178Y26082D01*
X25541Y26067D02*
X25713Y26239D01*
Y26484D02*
X25718Y26489D01*
X23620Y23650D02*
X23715D01*
X23899Y23834D01*
X23538Y22398D02*
X23596Y22456D01*
X23562Y21682D02*
X23715D01*
X23538Y21658D02*
X23562Y21682D01*
X23715D02*
X23899Y21866D01*
X23233Y19110D02*
X23262Y19080D01*
X25588Y18499D02*
X25738Y18649D01*
X28887D02*
X29038Y18498D01*
Y18278D02*
Y18498D01*
X28859Y13253D02*
X29076Y13471D01*
X29454Y9204D02*
Y9433D01*
X29734Y8808D02*
X31693D01*
X29454Y9088D02*
X29734Y8808D01*
X29454Y9088D02*
Y9433D01*
X31693Y8808D02*
X31802Y8699D01*
X28781Y13253D02*
X28859D01*
X28154Y9680D02*
X28376Y9458D01*
X28154Y9680D02*
Y10110D01*
X28851Y8690D02*
X28942Y8781D01*
D23*
X40034Y29733D02*
X40243Y29524D01*
X39707Y29733D02*
X40034D01*
X40024Y29238D02*
X40238D01*
X6969Y19706D02*
X7004D01*
X7104Y19605D01*
X7158D01*
X7261Y19503D01*
Y19444D02*
Y19503D01*
X5334Y18852D02*
X7066D01*
X4841Y19345D02*
X5334Y18852D01*
X7066D02*
X7261Y19046D01*
X5076Y21804D02*
Y21863D01*
X4841Y19345D02*
Y21618D01*
X4900Y21677D01*
X4949D01*
X5076Y21804D01*
X7261Y19046D02*
Y19444D01*
X19744Y15247D02*
X20068D01*
X19538Y15453D02*
X19744Y15247D01*
X19538Y15453D02*
Y15512D01*
X15611Y27864D02*
X15708Y27961D01*
X15243Y31236D02*
X15575D01*
X7261Y20584D02*
Y20964D01*
Y20204D02*
Y20584D01*
X7252Y20575D02*
X7261Y20584D01*
X6948Y20575D02*
X7252D01*
X16244Y6807D02*
Y7577D01*
X23074Y33198D02*
X23844D01*
X10538Y11750D02*
X11258D01*
X5765Y12897D02*
X6037Y12625D01*
X6204D01*
X6306Y12523D01*
Y12464D02*
Y12523D01*
X6296Y13333D02*
Y13392D01*
X6194Y13231D02*
X6296Y13333D01*
X6134Y13231D02*
X6194D01*
X6098Y13195D02*
X6134Y13231D01*
X5765Y13195D02*
X6098D01*
X19538Y14752D02*
Y14811D01*
X19640Y14914D01*
X19699D01*
X19736Y14950D01*
X20068D01*
X15575Y31236D02*
X15612Y31272D01*
X15671D01*
X15773Y31375D01*
Y31434D01*
X15243Y30939D02*
X15508D01*
X15612Y30835D01*
X15671D01*
X15773Y30733D01*
Y30674D02*
Y30733D01*
X31499Y33735D02*
X31700Y33535D01*
Y33144D02*
Y33535D01*
X31101Y33246D02*
Y33337D01*
X30999Y33144D02*
X31101Y33246D01*
X30940Y33144D02*
X30999D01*
X31101Y33337D02*
X31499Y33735D01*
X39807Y29021D02*
X40024Y29238D01*
X39745Y29021D02*
X39807D01*
X39707Y28983D02*
X39745Y29021D01*
X45502Y9718D02*
X45620D01*
X45439Y9781D02*
X45502Y9718D01*
X45439Y9781D02*
Y9823D01*
X45351Y9911D02*
X45439Y9823D01*
X44620Y9911D02*
X45351D01*
X44620Y14132D02*
X44644Y14108D01*
X45560D01*
D25*
X46683Y21809D02*
X46683Y3376D01*
X44638Y23854D02*
X46683Y21809D01*
X45276Y1969D02*
X46683Y3376D01*
X35315Y14909D02*
X35660D01*
X35252Y10128D02*
Y14800D01*
Y14846D02*
X35315Y14909D01*
X35252Y14800D02*
X35332Y14880D01*
Y14888D01*
X33324Y9575D02*
X34110D01*
X34694Y9570D02*
X35252Y10128D01*
X34106Y9570D02*
X34694D01*
X42923Y7782D02*
X42970Y7735D01*
X43548D02*
X43565Y7753D01*
X43683D01*
X0Y0D02*
X27Y-27D01*
X47257D01*
X47261Y-32D01*
Y49D01*
Y39359D01*
X47263Y39361D01*
X20D02*
X47263D01*
X0Y39340D02*
X20Y39361D01*
X0Y0D02*
Y39340D01*
D29*
X29068Y18417D02*
D03*
Y19243D02*
D03*
X24948Y26327D02*
D03*
Y25500D02*
D03*
X24187Y26327D02*
D03*
Y25500D02*
D03*
X26488Y26327D02*
D03*
Y25500D02*
D03*
X23074Y32372D02*
D03*
Y33198D02*
D03*
X23844Y32372D02*
D03*
Y33198D02*
D03*
X10538Y10923D02*
D03*
Y11750D02*
D03*
X11258Y10923D02*
D03*
Y11750D02*
D03*
X29561Y13253D02*
D03*
Y12427D02*
D03*
X30411Y10733D02*
D03*
Y9907D02*
D03*
X28851Y9857D02*
D03*
Y10683D02*
D03*
X25588Y18417D02*
D03*
Y19243D02*
D03*
X37414Y14802D02*
D03*
Y13975D02*
D03*
Y10922D02*
D03*
Y10095D02*
D03*
Y9033D02*
D03*
Y8206D02*
D03*
X44280Y11887D02*
D03*
Y11060D02*
D03*
X42008Y18287D02*
D03*
Y17461D02*
D03*
X35441Y16629D02*
D03*
Y17456D02*
D03*
X45618Y18455D02*
D03*
Y19282D02*
D03*
X42923Y7782D02*
D03*
Y6956D02*
D03*
X33933Y19887D02*
D03*
Y19060D02*
D03*
X30940Y33144D02*
D03*
Y32317D02*
D03*
X31700Y33144D02*
D03*
Y32317D02*
D03*
X28268Y19243D02*
D03*
Y18417D02*
D03*
X29548Y25500D02*
D03*
Y26327D02*
D03*
X29918Y19243D02*
D03*
Y18417D02*
D03*
X24501Y19243D02*
D03*
Y18417D02*
D03*
X25718Y25500D02*
D03*
Y26327D02*
D03*
X30707Y19243D02*
D03*
Y18417D02*
D03*
X30973Y25500D02*
D03*
Y26327D02*
D03*
X28781Y12427D02*
D03*
Y13253D02*
D03*
X33641Y9120D02*
D03*
Y9947D02*
D03*
X29611Y10683D02*
D03*
Y9857D02*
D03*
X31321Y7577D02*
D03*
Y8403D02*
D03*
X39070Y14330D02*
D03*
Y15157D02*
D03*
X37414Y12080D02*
D03*
Y12907D02*
D03*
D37*
X6184Y5760D02*
D03*
Y5012D02*
D03*
X7654Y5760D02*
D03*
Y5012D02*
D03*
X9074Y5760D02*
D03*
Y5012D02*
D03*
X10554Y5760D02*
D03*
Y5012D02*
D03*
X6158Y7969D02*
D03*
Y7221D02*
D03*
X7598Y7969D02*
D03*
Y7221D02*
D03*
X9058Y7969D02*
D03*
Y7221D02*
D03*
X10488Y7969D02*
D03*
Y7221D02*
D03*
X28306Y26172D02*
D03*
Y25424D02*
D03*
X43683Y7005D02*
D03*
Y7753D02*
D03*
X9758Y7221D02*
D03*
Y7969D02*
D03*
X6868Y7221D02*
D03*
Y7969D02*
D03*
X9824Y5012D02*
D03*
Y5760D02*
D03*
X5289Y7221D02*
D03*
Y7969D02*
D03*
X8344Y5012D02*
D03*
Y5760D02*
D03*
X6924Y5012D02*
D03*
Y5760D02*
D03*
X5316Y5012D02*
D03*
Y5760D02*
D03*
X8328Y7221D02*
D03*
Y7969D02*
D03*
X27937Y14291D02*
D03*
Y15039D02*
D03*
X28851Y7942D02*
D03*
Y8690D02*
D03*
X30476Y8275D02*
D03*
Y7527D02*
D03*
X45560Y13360D02*
D03*
Y14108D02*
D03*
X45620Y8970D02*
D03*
Y9718D02*
D03*
D38*
X31522Y24693D02*
D03*
X30695D02*
D03*
X23695Y21658D02*
D03*
X24522D02*
D03*
X23695Y22398D02*
D03*
X24522D02*
D03*
X23695Y23568D02*
D03*
X24522D02*
D03*
X23695Y24350D02*
D03*
X24522D02*
D03*
X38880Y28983D02*
D03*
X39707D02*
D03*
X38880Y29733D02*
D03*
X39707D02*
D03*
X38257Y27873D02*
D03*
X37430D02*
D03*
X38247Y28983D02*
D03*
X37420D02*
D03*
X17293Y31494D02*
D03*
X18120D02*
D03*
X17293Y32534D02*
D03*
X18120D02*
D03*
X5076Y21863D02*
D03*
X5903D02*
D03*
X7261Y20964D02*
D03*
X6434D02*
D03*
Y20204D02*
D03*
X7261D02*
D03*
X6434Y19444D02*
D03*
X7261D02*
D03*
X7132Y12464D02*
D03*
X6306D02*
D03*
X7132Y13224D02*
D03*
X6306D02*
D03*
X7776Y13454D02*
D03*
X8602D02*
D03*
X7776Y14474D02*
D03*
X8602D02*
D03*
X17071Y7577D02*
D03*
X16244D02*
D03*
X31074Y11390D02*
D03*
X30247D02*
D03*
X31074Y12140D02*
D03*
X30247D02*
D03*
X31647Y12810D02*
D03*
X32474D02*
D03*
X31657Y13570D02*
D03*
X32484D02*
D03*
X27309Y10881D02*
D03*
X28136D02*
D03*
X31420Y9466D02*
D03*
X32247D02*
D03*
X18135Y13676D02*
D03*
X17308D02*
D03*
X18122Y14706D02*
D03*
X17295D02*
D03*
X18745Y14886D02*
D03*
X19572D02*
D03*
X18745Y15646D02*
D03*
X19572D02*
D03*
X23642Y19915D02*
D03*
X24469D02*
D03*
X23262Y19080D02*
D03*
X22435D02*
D03*
X31522Y21148D02*
D03*
X30695D02*
D03*
X31522Y20183D02*
D03*
X30695D02*
D03*
Y21918D02*
D03*
X31522D02*
D03*
X31402Y19194D02*
D03*
X32229D02*
D03*
X16535Y27961D02*
D03*
X15708D02*
D03*
X32578Y14938D02*
D03*
X33405D02*
D03*
X15773Y30674D02*
D03*
X16600D02*
D03*
X15773Y31434D02*
D03*
X16600D02*
D03*
X16244Y6807D02*
D03*
X17071D02*
D03*
X31758Y25628D02*
D03*
X32585D02*
D03*
X22396Y25674D02*
D03*
X23223D02*
D03*
X27327Y10110D02*
D03*
X28154D02*
D03*
X28114Y11660D02*
D03*
X27287D02*
D03*
D39*
X1635Y17660D02*
D03*
X887D02*
D03*
X8813Y20034D02*
D03*
X9561D02*
D03*
X9454Y21070D02*
D03*
X8706D02*
D03*
X9455Y22057D02*
D03*
X8706D02*
D03*
X25861Y9890D02*
D03*
X25113D02*
D03*
X25111Y10620D02*
D03*
X25859D02*
D03*
X25093Y11360D02*
D03*
X25841D02*
D03*
X25112Y12175D02*
D03*
X25860D02*
D03*
X25102Y12923D02*
D03*
X25850D02*
D03*
X25102Y13673D02*
D03*
X25850D02*
D03*
X34041Y14953D02*
D03*
X34789D02*
D03*
X44194Y16778D02*
D03*
X44942D02*
D03*
X862Y18495D02*
D03*
X1610D02*
D03*
X866Y19340D02*
D03*
X1614D02*
D03*
X866Y20179D02*
D03*
X1614D02*
D03*
X39155Y24494D02*
D03*
X38407D02*
D03*
X39155Y23768D02*
D03*
X38407D02*
D03*
X39155Y21591D02*
D03*
X38407D02*
D03*
X39155Y20140D02*
D03*
X38407D02*
D03*
X39155Y20865D02*
D03*
X38407D02*
D03*
X39155Y19414D02*
D03*
X38407D02*
D03*
X39155Y23042D02*
D03*
X38407D02*
D03*
X39155Y22317D02*
D03*
X38407D02*
D03*
D103*
X44524Y3071D02*
Y8911D01*
X43964Y2512D02*
X44524Y3071D01*
X43964Y1856D02*
Y2512D01*
X42616Y507D02*
X43964Y1856D01*
X2211Y3359D02*
X3041D01*
X619Y4951D02*
X2211Y3359D01*
X619Y4951D02*
Y15682D01*
X4517Y507D02*
X42616D01*
X3548Y1476D02*
X4517Y507D01*
X3548Y1476D02*
Y2852D01*
X3041Y3359D02*
X3548Y2852D01*
X619Y15682D02*
X1621Y16684D01*
Y17334D01*
X44524Y8911D02*
X44620D01*
X1614Y20179D02*
X1766Y20331D01*
X3457Y22021D02*
Y29227D01*
X3394Y29290D02*
X3457Y29227D01*
X1815Y20380D02*
X3457Y22021D01*
X1717Y20380D02*
X1815D01*
X1717D02*
X1766Y20331D01*
X32813Y11072D02*
X33473Y10412D01*
X33606Y10279D01*
Y10077D02*
Y10279D01*
X30620Y12443D02*
X30985Y12808D01*
X30986D01*
X31306Y11072D02*
X32813D01*
X31074Y12140D02*
X31117Y12183D01*
X31446D01*
X31074Y11218D02*
Y11390D01*
Y12140D01*
Y11218D02*
X31220Y11072D01*
X26332Y9288D02*
X26625Y9581D01*
X28339Y12865D02*
Y13573D01*
X27655Y12181D02*
X28339Y12865D01*
Y13573D02*
X28586Y13820D01*
X29195D02*
X29576Y13439D01*
X28586Y13820D02*
X29195D01*
X25225Y9288D02*
X26332D01*
X25113Y9401D02*
X25225Y9288D01*
X25113Y9401D02*
Y9890D01*
X28825Y9400D02*
Y9831D01*
X28501Y9076D02*
X28825Y9400D01*
X27131Y9076D02*
X28501D01*
X26625Y9581D02*
X27131Y9076D01*
X26625Y9581D02*
Y10781D01*
Y11945D01*
Y10781D02*
X26720D01*
X26724Y10776D01*
X27159D01*
X26861Y12181D02*
X27655D01*
X26625Y11945D02*
X26861Y12181D01*
X28825Y9831D02*
X28851Y9857D01*
X30500Y10733D02*
X30805Y10428D01*
X30453Y10733D02*
X30500D01*
X30805Y10428D02*
X30965D01*
X31665Y9908D02*
Y10009D01*
X31439Y9682D02*
X31665Y9908D01*
X31283Y9526D02*
X31439Y9682D01*
Y9484D02*
Y9682D01*
X31420Y9466D02*
X31439Y9484D01*
X29941Y9526D02*
X31283D01*
X31665Y10009D02*
X31724D01*
X32986Y8406D02*
Y10474D01*
X32718Y10742D02*
X32986Y10474D01*
X31279Y10742D02*
X32718D01*
X30965Y10428D02*
X31279Y10742D01*
X30411Y10733D02*
X30453D01*
X32986Y8406D02*
X33182Y8210D01*
Y8194D02*
Y8210D01*
Y8194D02*
X33289Y8087D01*
X33368D01*
X30620Y10901D02*
Y12443D01*
X30453Y10733D02*
X30620Y10901D01*
X29611Y9857D02*
X29682Y9786D01*
X29807Y9660D02*
X29941Y9526D01*
X29807Y9660D02*
Y9720D01*
X29741Y9786D02*
X29807Y9720D01*
X29682Y9786D02*
X29741D01*
D105*
X27145Y5898D02*
X27409Y5633D01*
Y5143D02*
Y5633D01*
X26750Y4484D02*
X27409Y5143D01*
X27057Y5898D02*
X27145D01*
X26510Y4910D02*
X27035Y5435D01*
X23989Y4910D02*
X26510D01*
X22529Y3451D02*
X23989Y4910D01*
X22529Y2035D02*
Y3451D01*
X23075Y3153D02*
X24406Y4484D01*
X26750D01*
D106*
X32310Y14852D02*
X32551D01*
X32293Y14835D02*
X32310Y14852D01*
X32551D02*
X32578Y14879D01*
Y14938D01*
X16611Y27243D02*
Y27321D01*
X16541Y27391D02*
X16611Y27321D01*
X16535Y27961D02*
X16541Y27954D01*
X42685Y16704D02*
Y16763D01*
X42658Y16677D02*
X42685Y16704D01*
X42417Y16677D02*
X42658D01*
X42400Y16660D02*
X42417Y16677D01*
D114*
X4435Y33942D02*
D03*
X5435D02*
D03*
X6435D02*
D03*
X7435D02*
D03*
X8435D02*
D03*
X9435D02*
D03*
X6600Y27210D02*
D03*
X5600D02*
D03*
X7600D02*
D03*
X1180Y32030D02*
D03*
Y31030D02*
D03*
Y30030D02*
D03*
Y29030D02*
D03*
X3198Y17548D02*
D03*
Y18548D02*
D03*
Y19548D02*
D03*
Y20548D02*
D03*
D115*
X19611Y27243D02*
D03*
Y26243D02*
D03*
X18611Y27243D02*
D03*
Y26243D02*
D03*
X17611Y27243D02*
D03*
Y26243D02*
D03*
X16611Y27243D02*
D03*
Y26243D02*
D03*
X15611Y27243D02*
D03*
X44620Y8911D02*
D03*
Y9911D02*
D03*
Y13132D02*
D03*
Y14132D02*
D03*
D116*
X15611Y26243D02*
D03*
D117*
X45276Y1969D02*
D03*
X1969Y37402D02*
D03*
Y1969D02*
D03*
X45276Y37402D02*
D03*
D118*
X1125Y24395D02*
D03*
Y21521D02*
D03*
D119*
X6320Y2594D02*
D03*
X16158D02*
D03*
X19246D02*
D03*
X29084D02*
D03*
X32172D02*
D03*
X42011D02*
D03*
X44638Y23854D02*
D03*
Y33693D02*
D03*
X28380Y36866D02*
D03*
X18542D02*
D03*
X15149D02*
D03*
X5310D02*
D03*
X2542Y15326D02*
D03*
Y5487D02*
D03*
X31773Y36866D02*
D03*
X41612D02*
D03*
D120*
X13420Y3153D02*
D03*
X26346D02*
D03*
X39272D02*
D03*
X21280Y36307D02*
D03*
X8048D02*
D03*
X34511D02*
D03*
D121*
X12875Y2035D02*
D03*
X12330Y3153D02*
D03*
X11784Y2035D02*
D03*
X11239Y3153D02*
D03*
X10694Y2035D02*
D03*
X10148Y3153D02*
D03*
X9603Y2035D02*
D03*
X9058Y3153D02*
D03*
X25801Y2035D02*
D03*
X25256Y3153D02*
D03*
X24710Y2035D02*
D03*
X24165Y3153D02*
D03*
X23620Y2035D02*
D03*
X23075Y3153D02*
D03*
X22529Y2035D02*
D03*
X21984Y3153D02*
D03*
X38727Y2035D02*
D03*
X38182Y3153D02*
D03*
X37637Y2035D02*
D03*
X37091Y3153D02*
D03*
X36546Y2035D02*
D03*
X36001Y3153D02*
D03*
X35456Y2035D02*
D03*
X34910Y3153D02*
D03*
X45197Y30409D02*
D03*
X44079Y29864D02*
D03*
X45197Y29319D02*
D03*
X44079Y28774D02*
D03*
X45197Y28228D02*
D03*
X44079Y27683D02*
D03*
X45197Y27138D02*
D03*
X44079Y26593D02*
D03*
X21825Y37425D02*
D03*
X22370Y36307D02*
D03*
X22916Y37425D02*
D03*
X23461Y36307D02*
D03*
X24006Y37425D02*
D03*
X24552Y36307D02*
D03*
X25097Y37425D02*
D03*
X25642Y36307D02*
D03*
X8594Y37425D02*
D03*
X9139Y36307D02*
D03*
X9684Y37425D02*
D03*
X10230Y36307D02*
D03*
X10775Y37425D02*
D03*
X11320Y36307D02*
D03*
X11865Y37425D02*
D03*
X12411Y36307D02*
D03*
X1983Y8770D02*
D03*
X3101Y9316D02*
D03*
X1983Y9861D02*
D03*
X3101Y10406D02*
D03*
X1983Y10952D02*
D03*
X3101Y11497D02*
D03*
X1983Y12042D02*
D03*
X3101Y12587D02*
D03*
X38874Y36307D02*
D03*
X38328Y37425D02*
D03*
X37783Y36307D02*
D03*
X37238Y37425D02*
D03*
X36693Y36307D02*
D03*
X36147Y37425D02*
D03*
X35602Y36307D02*
D03*
X35057Y37425D02*
D03*
D122*
X44079Y30955D02*
D03*
X3101Y8225D02*
D03*
D123*
X8554Y25090D02*
D03*
X39762Y32962D02*
D03*
X11531Y14854D02*
D03*
X38025Y17748D02*
D03*
X42107Y5428D02*
D03*
D124*
X41788Y14571D02*
D03*
Y8473D02*
D03*
D125*
X39488Y9272D02*
D03*
Y10272D02*
D03*
Y11272D02*
D03*
Y12272D02*
D03*
Y13272D02*
D03*
X40489Y9772D02*
D03*
Y10772D02*
D03*
Y11772D02*
D03*
Y12772D02*
D03*
Y13772D02*
D03*
D126*
X42989D02*
D03*
Y9272D02*
D03*
D127*
X11195Y20247D02*
D03*
X13445D02*
D03*
X12345D02*
D03*
X12945Y21247D02*
D03*
X11795D02*
D03*
X9320Y29620D02*
D03*
Y31870D02*
D03*
Y30770D02*
D03*
X8320Y31370D02*
D03*
Y30220D02*
D03*
D128*
X10524Y26427D02*
D03*
X40243Y29524D02*
D03*
X9178Y7603D02*
D03*
X7713Y7614D02*
D03*
X6282Y7594D02*
D03*
X9315Y22035D02*
D03*
X6639Y7326D02*
D03*
X9239Y5392D02*
D03*
X7789Y5398D02*
D03*
X6383Y5409D02*
D03*
X6709Y5066D02*
D03*
X6378Y4865D02*
D03*
X32658Y12961D02*
D03*
X42702Y6863D02*
D03*
X43394Y6909D02*
D03*
X39317Y15131D02*
D03*
X40767Y29372D02*
D03*
X40238Y29238D02*
D03*
X24613Y27433D02*
D03*
X46303Y16703D02*
D03*
X29137Y7863D02*
D03*
X31055Y17709D02*
D03*
X44523Y11061D02*
D03*
X6627Y30830D02*
D03*
X5411Y30518D02*
D03*
X11072Y30187D02*
D03*
X10299Y30803D02*
D03*
X32643Y19511D02*
D03*
X3394Y29290D02*
D03*
X15535Y9457D02*
D03*
X33606Y10077D02*
D03*
X34106Y9570D02*
D03*
X33324Y9575D02*
D03*
X30986Y12808D02*
D03*
X31306Y11038D02*
D03*
X31446Y12183D02*
D03*
X30791Y14737D02*
D03*
X30383Y14956D02*
D03*
X30280Y27365D02*
D03*
X29849Y27655D02*
D03*
X29472Y27247D02*
D03*
X26603Y27124D02*
D03*
X26244Y27424D02*
D03*
X25627Y27406D02*
D03*
X25375Y27112D02*
D03*
X30562Y25159D02*
D03*
X24337Y27118D02*
D03*
X21632Y25868D02*
D03*
X22863Y25891D02*
D03*
X21491Y25494D02*
D03*
X22198Y25745D02*
D03*
X21887Y25197D02*
D03*
X21907Y24824D02*
D03*
X22402Y24674D02*
D03*
X22706Y24398D02*
D03*
X33557Y25022D02*
D03*
X32302Y23540D02*
D03*
X32309Y23932D02*
D03*
X31236Y23882D02*
D03*
X31142Y22995D02*
D03*
X24238Y22824D02*
D03*
X24317Y22206D02*
D03*
X37654Y23720D02*
D03*
X31260Y23443D02*
D03*
X33581Y22310D02*
D03*
X30293Y20213D02*
D03*
X30309Y20676D02*
D03*
X33588Y21543D02*
D03*
X32342Y18831D02*
D03*
X25461Y7964D02*
D03*
X25466Y8611D02*
D03*
X26043Y9880D02*
D03*
X26030Y8235D02*
D03*
X26036Y8964D02*
D03*
X24291Y23572D02*
D03*
X21780Y20565D02*
D03*
X22219Y20411D02*
D03*
X22809Y19882D02*
D03*
X22502Y19658D02*
D03*
X21932Y19373D02*
D03*
X22534Y20170D02*
D03*
X22244Y19121D02*
D03*
X22924Y19036D02*
D03*
X23822Y17836D02*
D03*
X24505Y17642D02*
D03*
X24674Y17315D02*
D03*
X25014Y17498D02*
D03*
X25091Y18653D02*
D03*
X25350Y17134D02*
D03*
X25676Y17364D02*
D03*
X24163Y18649D02*
D03*
X25362Y19294D02*
D03*
X24320Y19079D02*
D03*
X29061Y19087D02*
D03*
X30112Y19082D02*
D03*
X31254Y18948D02*
D03*
X26109Y18909D02*
D03*
X26186Y17641D02*
D03*
X26537Y18628D02*
D03*
X26710Y17663D02*
D03*
X26921Y18753D02*
D03*
X33591Y23449D02*
D03*
X31317Y21470D02*
D03*
X31284Y21973D02*
D03*
X33896Y18901D02*
D03*
X30932Y19432D02*
D03*
X31123Y19781D02*
D03*
X31317Y20291D02*
D03*
X28123Y18646D02*
D03*
X29914Y18645D02*
D03*
X27057Y5898D02*
D03*
X27035Y5435D02*
D03*
X28886Y7593D02*
D03*
X27746Y8285D02*
D03*
X35660Y14909D02*
D03*
X32121Y13200D02*
D03*
X31646Y13433D02*
D03*
X31628Y13002D02*
D03*
X4438Y9691D02*
D03*
X4972D02*
D03*
X25219Y30235D02*
D03*
X16948Y32934D02*
D03*
X17847Y33043D02*
D03*
X16455Y33020D02*
D03*
X16310Y31989D02*
D03*
X40542Y28482D02*
D03*
X40321Y27693D02*
D03*
X39094Y27411D02*
D03*
X37686Y27398D02*
D03*
X26030Y33907D02*
D03*
X25184Y33731D02*
D03*
X24815Y30265D02*
D03*
X25674Y30387D02*
D03*
X31565Y34194D02*
D03*
X33326Y33783D02*
D03*
X31157Y30750D02*
D03*
X28280Y25989D02*
D03*
X28306Y25255D02*
D03*
X35332Y14888D02*
D03*
X10682Y7074D02*
D03*
X19679Y8483D02*
D03*
X19293Y9443D02*
D03*
X15724Y9951D02*
D03*
X15611Y8970D02*
D03*
X12665Y8781D02*
D03*
X11359Y12357D02*
D03*
X20665Y13422D02*
D03*
X20241Y13167D02*
D03*
X38394Y21813D02*
D03*
X15243Y31236D02*
D03*
X16386Y32515D02*
D03*
X25668Y33798D02*
D03*
X27172Y30403D02*
D03*
X32269Y30060D02*
D03*
X33348Y30140D02*
D03*
X37631Y29009D02*
D03*
X17406Y6778D02*
D03*
X17419Y7564D02*
D03*
X19214Y8956D02*
D03*
X18602Y15670D02*
D03*
X12135Y12317D02*
D03*
X12917Y9928D02*
D03*
X11887Y9935D02*
D03*
X24946Y13649D02*
D03*
X6830Y14454D02*
D03*
X12622Y24150D02*
D03*
X12090Y23724D02*
D03*
X10528Y24636D02*
D03*
X13724Y24581D02*
D03*
X10250Y18573D02*
D03*
X10236Y17666D02*
D03*
X8718Y21678D02*
D03*
X8063Y20550D02*
D03*
X5194Y21000D02*
D03*
X7020Y21753D02*
D03*
X7044Y22035D02*
D03*
X6093Y21879D02*
D03*
X5250Y21813D02*
D03*
X6969Y19706D02*
D03*
X7995Y19986D02*
D03*
X8721Y20704D02*
D03*
X6948Y20575D02*
D03*
X6258Y20968D02*
D03*
X6246Y20216D02*
D03*
X6265Y19444D02*
D03*
X9317Y21085D02*
D03*
X8280Y21265D02*
D03*
X8630Y20036D02*
D03*
X9740Y20063D02*
D03*
X9206Y19602D02*
D03*
X8315Y22041D02*
D03*
X18035Y10959D02*
D03*
X16257Y7146D02*
D03*
X23841Y32203D02*
D03*
X23079Y32183D02*
D03*
X23408Y33213D02*
D03*
X11241Y10748D02*
D03*
X10542D02*
D03*
X10781Y11770D02*
D03*
X5472Y7984D02*
D03*
X6946Y13442D02*
D03*
X5765Y13195D02*
D03*
Y12897D02*
D03*
X7321Y12639D02*
D03*
X7595Y13463D02*
D03*
X8392Y13447D02*
D03*
X8413Y14475D02*
D03*
X7625Y14481D02*
D03*
X18887Y14703D02*
D03*
X20068Y14950D02*
D03*
Y15247D02*
D03*
X18239Y14682D02*
D03*
X17442Y14698D02*
D03*
X17421Y13670D02*
D03*
X18209Y13663D02*
D03*
X18925Y13671D02*
D03*
X17102Y32523D02*
D03*
X17890Y32517D02*
D03*
X17869Y31488D02*
D03*
X17072Y31504D02*
D03*
X16798Y30680D02*
D03*
X15243Y30939D02*
D03*
X16424Y31483D02*
D03*
X32553Y33910D02*
D03*
X31679Y32128D02*
D03*
X30932Y32132D02*
D03*
X31499Y33735D02*
D03*
X38690Y29732D02*
D03*
X39052Y27968D02*
D03*
X37646Y27984D02*
D03*
X38452Y27887D02*
D03*
X38540Y28961D02*
D03*
X42238Y17452D02*
D03*
X23315Y17791D02*
D03*
X22669Y17099D02*
D03*
X21506Y17781D02*
D03*
X20869Y17052D02*
D03*
X1032Y17666D02*
D03*
X1002Y18521D02*
D03*
X1020Y19335D02*
D03*
X1008Y20173D02*
D03*
X1625Y19043D02*
D03*
X1619Y18216D02*
D03*
X1621Y17334D02*
D03*
X2122Y17657D02*
D03*
X2115Y18517D02*
D03*
X2093Y19343D02*
D03*
X2077Y20164D02*
D03*
X14077Y25194D02*
D03*
X10783Y25243D02*
D03*
X5315Y31909D02*
D03*
X4485Y32250D02*
D03*
X11191Y31992D02*
D03*
X11209Y27118D02*
D03*
X12260Y26414D02*
D03*
X12932Y27131D02*
D03*
X11847Y32728D02*
D03*
X3372Y32331D02*
D03*
X2570Y31600D02*
D03*
X11784Y28698D02*
D03*
X10951Y28677D02*
D03*
X45876Y16715D02*
D03*
X14339Y18446D02*
D03*
X13584Y17696D02*
D03*
X11879Y17679D02*
D03*
X12554Y18424D02*
D03*
X5483Y25757D02*
D03*
X5493Y24866D02*
D03*
X3846Y27041D02*
D03*
X3137Y26343D02*
D03*
X2654Y22331D02*
D03*
X1260Y26061D02*
D03*
X488Y26143D02*
D03*
X526Y25306D02*
D03*
X1309D02*
D03*
X6352Y7074D02*
D03*
X7792D02*
D03*
X8088Y7343D02*
D03*
X9564Y7381D02*
D03*
X9252Y7074D02*
D03*
X10748Y4865D02*
D03*
X9605Y5126D02*
D03*
X9268Y4865D02*
D03*
X8137Y5140D02*
D03*
X7848Y4865D02*
D03*
X5265Y7066D02*
D03*
X6121Y7970D02*
D03*
X6902Y7980D02*
D03*
X7561D02*
D03*
X8346D02*
D03*
X8986Y7965D02*
D03*
X10444Y7984D02*
D03*
X9824Y7970D02*
D03*
X10543Y5765D02*
D03*
X9874Y5751D02*
D03*
X9044D02*
D03*
X8414Y5775D02*
D03*
X7627Y5770D02*
D03*
X6969Y5780D02*
D03*
X5483Y5751D02*
D03*
X6162Y5745D02*
D03*
X5227Y4850D02*
D03*
X42676Y7728D02*
D03*
X43359Y7737D02*
D03*
X44529Y11874D02*
D03*
X42400Y16660D02*
D03*
X44983Y16759D02*
D03*
X44956Y19367D02*
D03*
X42165Y19260D02*
D03*
X42625Y19277D02*
D03*
X41729Y18429D02*
D03*
X45362Y19362D02*
D03*
X45547Y18599D02*
D03*
X44028Y16781D02*
D03*
X43687D02*
D03*
X39342Y14304D02*
D03*
X37665Y12890D02*
D03*
X37704Y10921D02*
D03*
X37679Y9025D02*
D03*
X36759Y8049D02*
D03*
X36773Y9222D02*
D03*
X36765Y9951D02*
D03*
X36786Y11172D02*
D03*
Y11920D02*
D03*
X36759Y13146D02*
D03*
X36742Y13948D02*
D03*
X36773Y14943D02*
D03*
X37718Y14794D02*
D03*
X28254Y29471D02*
D03*
X34206Y19876D02*
D03*
X32751Y19869D02*
D03*
X40592Y23735D02*
D03*
X40573Y23243D02*
D03*
X40583Y22731D02*
D03*
X40573Y22238D02*
D03*
X40564Y21745D02*
D03*
X40546Y21252D02*
D03*
X40583Y20742D02*
D03*
Y20230D02*
D03*
X39343Y19413D02*
D03*
X39329Y20143D02*
D03*
X39334Y20860D02*
D03*
X39310Y21591D02*
D03*
Y22317D02*
D03*
X39291Y23014D02*
D03*
X39320Y23778D02*
D03*
X39324Y24463D02*
D03*
X38276Y24454D02*
D03*
X38411Y23528D02*
D03*
X38394Y22901D02*
D03*
X38408Y22471D02*
D03*
X38394Y21058D02*
D03*
X38391Y20365D02*
D03*
X38236Y19458D02*
D03*
X24006Y21228D02*
D03*
X24638Y19910D02*
D03*
X23882Y19469D02*
D03*
X23899Y19897D02*
D03*
X28501Y19052D02*
D03*
X30885Y20161D02*
D03*
X30875Y21143D02*
D03*
X31140Y22443D02*
D03*
X31304Y24243D02*
D03*
X31335Y25417D02*
D03*
X30462Y26062D02*
D03*
X30535Y21860D02*
D03*
X30572Y24696D02*
D03*
X23899Y24425D02*
D03*
X24472Y24288D02*
D03*
X25147Y26067D02*
D03*
X24970Y25506D02*
D03*
X24163Y26067D02*
D03*
X25738Y18649D02*
D03*
X33545Y24162D02*
D03*
X32417Y25641D02*
D03*
X26476Y25431D02*
D03*
X25690Y25483D02*
D03*
X24205Y25476D02*
D03*
X24494Y21668D02*
D03*
X23899Y21866D02*
D03*
Y23834D02*
D03*
X24557Y26067D02*
D03*
X25541D02*
D03*
X26525D02*
D03*
X29478D02*
D03*
X31053D02*
D03*
X30728Y25512D02*
D03*
X31821Y26109D02*
D03*
X31317Y24818D02*
D03*
X30856Y18649D02*
D03*
X28887D02*
D03*
X29548Y25597D02*
D03*
X26022Y13616D02*
D03*
X30094Y13299D02*
D03*
X26726Y14454D02*
D03*
X26465Y8246D02*
D03*
X26413Y14206D02*
D03*
X26433Y14669D02*
D03*
X28019Y13471D02*
D03*
X27939Y14117D02*
D03*
X29076Y13471D02*
D03*
X29576Y13439D02*
D03*
X27254Y12827D02*
D03*
X30805Y10428D02*
D03*
X33580Y14956D02*
D03*
X33921D02*
D03*
X35439Y16773D02*
D03*
X35255Y17537D02*
D03*
X32354Y10134D02*
D03*
X31665Y10009D02*
D03*
X32268Y9225D02*
D03*
X31622Y16603D02*
D03*
X32518Y17452D02*
D03*
X32058Y17435D02*
D03*
X34849Y17542D02*
D03*
X34876Y14934D02*
D03*
X32293Y14835D02*
D03*
X25381Y14405D02*
D03*
X27687Y15054D02*
D03*
X25488Y12017D02*
D03*
X25480Y11419D02*
D03*
X25466Y9682D02*
D03*
X25487Y10504D02*
D03*
X32269Y8609D02*
D03*
X29454Y9433D02*
D03*
X29414Y11283D02*
D03*
X28814Y11306D02*
D03*
X25471Y13039D02*
D03*
X27159Y10776D02*
D03*
X27200Y11786D02*
D03*
X27665Y14674D02*
D03*
X32483Y13797D02*
D03*
X27310Y9858D02*
D03*
X25479Y13792D02*
D03*
X24931Y12909D02*
D03*
X24943Y12150D02*
D03*
X24921Y11360D02*
D03*
X24961Y10594D02*
D03*
X26035Y12928D02*
D03*
Y12156D02*
D03*
X26005Y11340D02*
D03*
X26035Y10609D02*
D03*
X29614Y10843D02*
D03*
X28820D02*
D03*
X28328Y10861D02*
D03*
X28304Y11661D02*
D03*
X28783Y12219D02*
D03*
X29543Y12214D02*
D03*
X30008Y12120D02*
D03*
X30022Y11367D02*
D03*
X33384Y9076D02*
D03*
X28555Y9793D02*
D03*
X28376Y9458D02*
D03*
X29461Y9797D02*
D03*
X30658Y10022D02*
D03*
X30249Y8293D02*
D03*
X31435Y8321D02*
D03*
X29587Y8165D02*
D03*
X28839Y8883D02*
D03*
X29124Y23441D02*
D03*
Y22574D02*
D03*
Y21708D02*
D03*
X26092Y20842D02*
D03*
Y21275D02*
D03*
Y21708D02*
D03*
Y22141D02*
D03*
Y22574D02*
D03*
Y23007D02*
D03*
Y23441D02*
D03*
Y23874D02*
D03*
X26525Y20842D02*
D03*
Y21275D02*
D03*
Y21708D02*
D03*
Y22141D02*
D03*
Y22574D02*
D03*
Y23007D02*
D03*
Y23441D02*
D03*
Y23874D02*
D03*
X26958Y20842D02*
D03*
Y21275D02*
D03*
Y21708D02*
D03*
Y22141D02*
D03*
Y22574D02*
D03*
Y23007D02*
D03*
Y23441D02*
D03*
Y23874D02*
D03*
X27391Y20842D02*
D03*
Y21275D02*
D03*
Y21708D02*
D03*
Y22141D02*
D03*
Y22574D02*
D03*
Y23007D02*
D03*
Y23441D02*
D03*
Y23874D02*
D03*
X27824Y20842D02*
D03*
Y21275D02*
D03*
Y21708D02*
D03*
Y22141D02*
D03*
Y22574D02*
D03*
Y23007D02*
D03*
Y23441D02*
D03*
Y23874D02*
D03*
X28258Y20842D02*
D03*
Y21275D02*
D03*
Y21708D02*
D03*
Y22141D02*
D03*
Y22574D02*
D03*
Y23007D02*
D03*
Y23441D02*
D03*
Y23874D02*
D03*
X28691Y20842D02*
D03*
Y21275D02*
D03*
Y21708D02*
D03*
Y22141D02*
D03*
Y22574D02*
D03*
Y23007D02*
D03*
Y23441D02*
D03*
Y23874D02*
D03*
X29124Y20842D02*
D03*
Y21275D02*
D03*
Y22141D02*
D03*
Y23007D02*
D03*
Y23874D02*
D03*
D154*
X32270Y7713D02*
D03*
Y8461D02*
D03*
X33368Y8087D02*
D03*
D155*
X11042Y30601D02*
D03*
D156*
X6319Y30708D02*
D03*
D157*
X8765Y30693D02*
D03*
D158*
X12299Y20710D02*
D03*
D159*
X12341Y22687D02*
D03*
M02*
