M48
;Layer_Color=9474304
;FILE_FORMAT=2:4
INCH
;TYPE=PLATED
T1F00S00C0.0120
T3F00S00C0.0276
T4F00S00C0.0280
T5F00S00C0.0300
T6F00S00C0.0315
T7F00S00C0.0354
T8F00S00C0.0394
T9F00S00C0.0433
T10F00S00C0.0630
T11F00S00C0.1260
T12F00S00C0.1283
;TYPE=NON_PLATED
T13F00S00C0.1280
%
T01
X015227Y014850
X016378Y014865
X016709Y015066
X016383Y015409
X017789Y015398
X017848Y014865
X018137Y015140
X019239Y015392
X019268Y014865
X019605Y015126
X020748Y014865
X037035Y015435
X047679Y019025
X047704Y020921
X047665Y022890
X047718Y024794
X049317Y025131
X049342Y024304
X049343Y029413
X049329Y030143
X049334Y030860
X048394Y031058
X048391Y030365
X048236Y029458
X050583Y030230
Y030742
X052165Y029260
X052625Y029277
X051729Y028429
X052238Y027452
X052400Y026660
X053687Y026781
X054028
X054983Y026759
X055876Y026715
X056303Y026703
X055547Y028599
X055362Y029362
X054956Y029367
X054529Y021874
X054523Y021061
X053359Y017737
X052676Y017728
X052702Y016863
X053394Y016909
X046759Y018049
X046773Y019222
X046765Y019951
X046786Y021172
Y021920
X046759Y023146
X046742Y023948
X046773Y024943
X045660Y024909
X045332Y024888
X044876Y024934
X043921Y024956
X043580
X042293Y024835
X042483Y023797
X042121Y023200
X041628Y023002
X041646Y023433
X040986Y022808
X041446Y022183
X041306Y021038
X040805Y020428
X040658Y020022
X041665Y020009
X042354Y020134
X042268Y019225
X042269Y018609
X041435Y018321
X040249Y018293
X039587Y018165
X039137Y017863
X038886Y017593
X038839Y018883
X038376Y019458
X038555Y019793
X039461Y019797
X039454Y019433
X039614Y020843
X039414Y021283
X038814Y021306
X038820Y020843
X038328Y020861
X038304Y021661
X038783Y022219
X039543Y022214
X040008Y022120
X040022Y021367
X040094Y023299
X039576Y023439
X039076Y023471
X038019
X037939Y024117
X037665Y024674
X037687Y025054
X036726Y024454
X036433Y024669
X036413Y024206
X036022Y023616
X036035Y022928
X035471Y023039
X034931Y022909
X034946Y023649
X035479Y023792
X035381Y024405
X035488Y022017
X035480Y021419
X036005Y021340
X036035Y020609
X035487Y020504
X034961Y020594
X034921Y021360
X034943Y022150
X036035Y022156
X037200Y021786
X037159Y020776
X037310Y019858
X036043Y019880
X035466Y019682
Y018611
X035461Y017964
X036030Y018235
X036465Y018246
X036036Y018964
X037746Y018285
X037057Y015898
X037254Y022827
X040383Y024956
X040791Y024737
X041622Y026603
X042058Y027435
X042518Y027452
X042342Y028832
X042643Y029511
X042751Y029869
X044206Y029876
X043896Y028901
X044849Y027542
X045255Y027537
X045439Y026773
X041055Y027709
X040856Y028649
X041254Y028948
X040932Y029432
X041123Y029781
X040885Y030161
X041317Y030291
X040293Y030213
X040309Y030676
X040875Y031143
X039124Y030842
X038691
X038258
X037824
X037391
X036958
X036525
X036092
X036109Y028909
X035738Y028649
X035091Y028653
X035362Y029294
X034320Y029079
X034163Y028649
X033882Y029469
X033899Y029897
X034638Y029910
X032809Y029882
X032502Y029658
X032534Y030170
X032219Y030411
X031780Y030565
X031932Y029373
X032244Y029121
X032924Y029036
X033315Y027791
X033822Y027836
X034505Y027642
X034674Y027315
X035014Y027498
X035350Y027134
X035676Y027364
X036186Y027641
X036710Y027663
X036537Y028628
X036921Y028753
X038123Y028646
X038887Y028649
X039061Y029087
X038501Y029052
X040112Y029082
X039914Y028645
X042658Y022961
X043606Y020077
X043324Y019575
X043384Y019076
X044106Y019570
X032669Y027099
X031506Y027781
X034006Y031228
X030869Y027052
X030068Y025247
Y024950
X028887Y024703
X028238Y024682
X027442Y024698
X027421Y023670
X028209Y023663
X028925Y023671
X030241Y023167
X030665Y023422
X028602Y025670
X028035Y020959
X029293Y019443
X029214Y018956
X029679Y018483
X027419Y017564
X027406Y016778
X026257Y017146
X025611Y018970
X025535Y019457
X025724Y019951
X022917Y019928
X021887Y019935
X021241Y020748
X020542
X020781Y021770
X021359Y022357
X022135Y022317
X022665Y018781
X020444Y017984
X019824Y017970
X018986Y017965
X019178Y017603
X019252Y017074
X019564Y017381
X020682Y017074
X020543Y015765
X019874Y015751
X019044
X018414Y015775
X017627Y015770
X016968Y015780
X016162Y015745
X016352Y017074
X016639Y017326
X016282Y017594
X016121Y017970
X016902Y017980
X017561
X017713Y017614
X017792Y017074
X018088Y017343
X018346Y017980
X018392Y023447
X017595Y023463
X016946Y023442
X016830Y024454
X017625Y024481
X018413Y024475
X017321Y022639
X015765Y022897
Y023195
X016265Y029444
X016246Y030216
X016258Y030968
X016948Y030575
X016968Y029706
X017995Y029986
X018063Y030550
X018721Y030704
X018630Y030036
X019206Y029602
X019740Y030063
X019317Y031085
X020250Y028573
X020236Y027666
X021879Y027679
X022554Y028424
X023584Y027696
X024339Y028446
X015194Y031000
X012077Y030164
X012093Y029343
X011625Y029043
X011619Y028216
X012115Y028517
X012122Y027657
X011621Y027334
X011032Y027666
X011002Y028521
X011020Y029335
X011008Y030173
X014438Y019691
X014972
X015472Y017984
X015265Y017066
X015483Y015751
X015250Y031813
X012654Y032331
X011309Y035306
X010526
X010488Y036143
X011260Y036061
X013137Y036343
X013846Y037041
X013394Y039290
X013372Y042331
X014485Y042250
X015315Y041909
X015411Y040518
X012570Y041600
X015483Y035757
X015493Y034866
X016093Y031879
X017020Y031753
X017044Y032035
X018315Y032041
X018718Y031678
X018280Y031265
X019315Y032035
X020528Y034636
X020783Y035243
X020524Y036427
X021209Y037118
X022932Y037131
X022260Y036414
X022622Y034150
X022090Y033724
X023724Y034581
X024077Y035194
X021784Y038698
X020951Y038677
X021072Y040187
X020299Y040803
X021191Y041992
X021847Y042728
X026386Y042515
X026455Y043020
X026948Y042934
X027102Y042523
X027890Y042517
X027847Y043043
X027869Y041488
X027072Y041504
X026424Y041483
X026310Y041989
X026798Y040680
X025243Y040939
Y041236
X016627Y040830
X033079Y042183
X033841Y042203
X033408Y043213
X035184Y043731
X035668Y043798
X036030Y043907
X035674Y040387
X035219Y040235
X034815Y040265
X037172Y040403
X038254Y039471
X039849Y037655
X040280Y037365
X039472Y037247
X039478Y036067
X039548Y035597
X040728Y035512
X040562Y035159
X040572Y034696
X041317Y034818
X041304Y034243
X041236Y033882
X041260Y033443
X041142Y032995
X041140Y032443
X041284Y031973
X041317Y031470
X040535Y031860
X039124Y031708
X038691
X038258
X037824
X037391
X036958
X036525
X036092
Y031275
X036525
X036958
X037391
X037824
X038258
X038691
X039124
Y032141
Y032574
X038691
X038258
X037824
X037391
X036958
X036525
X036092
Y032141
X036525
X036958
X037391
X037824
X038258
X038691
Y033007
X038258
X037824
X037391
X036958
X036525
X036092
Y033441
X036525
Y033874
X036092
X036958
Y033441
X037391
Y033874
X037824
Y033441
X038258
Y033874
X038691
Y033441
X039124
Y033007
Y033874
X038306Y035255
X038280Y035989
X036525Y036067
X036476Y035431
X035690Y035483
X035541Y036067
X035147
X034557
X034163
X034205Y035476
X034970Y035506
X034472Y034288
X033899Y034425
Y033834
X034291Y033572
X034238Y032824
X034317Y032206
X034494Y031668
X033899Y031866
X032706Y034398
X032402Y034674
X031907Y034824
X031887Y035197
X031491Y035494
X031632Y035868
X032198Y035745
X032863Y035891
X034337Y037118
X034613Y037433
X035627Y037406
X035375Y037112
X036244Y037424
X036603Y037124
X040462Y036062
X041053Y036067
X041821Y036109
X042417Y035641
X041335Y035417
X042309Y033932
X042302Y033540
X043591Y033449
X043545Y034162
X043557Y035022
X043581Y032310
X043588Y031543
X043348Y040140
X042269Y040060
X041157Y040750
X040932Y042132
X041679Y042128
X041499Y043735
X041565Y044194
X042553Y043910
X043326Y043783
X047632Y039009
X048540Y038961
X048690Y039732
X050243Y039524
X050238Y039238
X050767Y039372
X050542Y038482
X050321Y037693
X049094Y037411
X049052Y037968
X048452Y037887
X047646Y037984
X047686Y037398
X048276Y034454
X049324Y034463
X049320Y033778
X049291Y033014
X049310Y032317
Y031591
X048394Y031813
X048408Y032471
X048394Y032901
X048411Y033528
X047654Y033720
X050592Y033735
X050573Y033243
X050583Y032731
X050573Y032238
X050564Y031745
X050546Y031252
T03
X014435Y043942
X015435
X016435
X017435
X018435
X019435
T04
X021195Y030247
X022345
X023445
X022945Y031247
X021795
X019320Y039620
Y040770
Y041870
X018320Y041370
Y040220
T05
X013198Y027548
Y028548
Y029548
Y030548
X011180Y039030
Y040030
Y041030
Y042030
T06
X015600Y037210
X016600
X017600
T07
X049489Y019272
Y020272
Y021272
Y022272
Y023272
X050489Y022772
Y021772
Y020772
Y019772
Y023772
X029611Y036243
Y037243
X028611
Y036243
X027611
Y037243
X026611
Y036243
X025611
Y037243
T08
X054620Y018911
Y019911
Y023132
Y024132
T09
X019603Y012035
X020694
X021784
X022875
X023420Y013153
X022330
X021239
X020148
X019058
X031984
X033075
X034165
X035256
X036346
X035801Y012035
X034710
X033620
X032529
X045456
X046546
X046001Y013153
X044910
X047091
X048182
X049272
X048727Y012035
X047637
X052107Y015428
X048025Y027748
X021531Y024854
X013101Y022587
Y021497
Y020406
Y019316
Y018225
X011983Y018770
Y019861
Y020952
Y022042
X018554Y035090
X018048Y046307
X019139
X020230
X021320
X022411
X031280
X032370
X033461
X034552
X035642
X044511
X045602
X046693
X047783
X048874
X049762Y042962
X054079Y040955
Y039864
Y038774
Y037683
Y036593
X055197Y037138
Y038228
Y039319
Y040409
X048328Y047425
X047238
X046147
X045057
X035097
X034006
X032916
X031825
X021865
X020775
X019684
X018594
T10
X051788Y018473
Y024571
T11
X011968Y011968
X055276
Y047402
X011968
T12
X012542Y015487
X016320Y012594
X026158
X029246
X039084
X042172
X052011
X012542Y025326
X015310Y046866
X025149
X028542
X038380
X041773
X051612
X054638Y043693
Y033854
T13
X052989Y019272
Y023772
M30
