G04*
G04 #@! TF.GenerationSoftware,Altium Limited,Altium Designer,18.1.7 (191)*
G04*
G04 Layer_Color=32768*
%FSLAX24Y24*%
%MOIN*%
G70*
G01*
G75*
%ADD10C,0.0100*%
%ADD17C,0.0039*%
%ADD18C,0.0050*%
%ADD21C,0.0080*%
%ADD25C,0.0250*%
D10*
X12345Y22347D02*
Y22847D01*
X12095Y22597D02*
X12595D01*
X6720Y30770D02*
X7220D01*
X6970Y30520D02*
Y31020D01*
X11239Y1109D02*
Y2109D01*
X10739Y1609D02*
X11739D01*
X24165Y1109D02*
Y2109D01*
X23665Y1609D02*
X24665D01*
X37091Y1109D02*
Y2109D01*
X36591Y1609D02*
X37591D01*
X43558Y17938D02*
X44058D01*
X43808Y17688D02*
Y18188D01*
X45122Y28774D02*
X46122D01*
X45622Y28274D02*
Y29274D01*
X23461Y37350D02*
Y38350D01*
X22961Y37850D02*
X23961D01*
X10230Y37350D02*
Y38350D01*
X9730Y37850D02*
X10730D01*
X1057Y10406D02*
X2057D01*
X1557Y9906D02*
Y10906D01*
X33701Y15863D02*
Y16363D01*
X33451Y16113D02*
X33951D01*
X42514Y11521D02*
X43514D01*
X43014Y11021D02*
Y12021D01*
X36193Y37850D02*
X37193D01*
X36693Y37350D02*
Y38350D01*
D17*
X32622Y8087D02*
X33016D01*
X32819Y7890D02*
Y8283D01*
X27411Y22358D02*
X27805D01*
X27608Y22161D02*
Y22555D01*
D18*
X15869Y13510D02*
Y13710D01*
X15769Y13610D02*
X15969D01*
X9931Y13109D02*
Y13309D01*
X9831Y13209D02*
X10031D01*
X31009Y24693D02*
X31209D01*
X31109Y24593D02*
Y24793D01*
X29068Y18730D02*
Y18930D01*
X28968Y18830D02*
X29168D01*
X24009Y21658D02*
X24209D01*
X24109Y21558D02*
Y21758D01*
X24009Y22398D02*
X24209D01*
X24109Y22298D02*
Y22498D01*
X24009Y23568D02*
X24209D01*
X24109Y23468D02*
Y23668D01*
X24009Y24350D02*
X24209D01*
X24109Y24250D02*
Y24450D01*
X24948Y25813D02*
Y26013D01*
X24848Y25913D02*
X25048D01*
X24187Y25813D02*
Y26013D01*
X24087Y25913D02*
X24287D01*
X26488Y25813D02*
Y26013D01*
X26388Y25913D02*
X26588D01*
X39193Y28983D02*
X39393D01*
X39293Y28883D02*
Y29083D01*
X39193Y29733D02*
X39393D01*
X39293Y29633D02*
Y29833D01*
X37743Y27873D02*
X37943D01*
X37843Y27773D02*
Y27973D01*
X37733Y28983D02*
X37933D01*
X37833Y28883D02*
Y29083D01*
X23074Y32685D02*
Y32885D01*
X22974Y32785D02*
X23174D01*
X23844Y32685D02*
Y32885D01*
X23744Y32785D02*
X23944D01*
X17606Y31494D02*
X17806D01*
X17706Y31394D02*
Y31594D01*
X17606Y32534D02*
X17806D01*
X17706Y32434D02*
Y32634D01*
X1261Y17560D02*
Y17760D01*
X1161Y17660D02*
X1361D01*
X9187Y19934D02*
Y20134D01*
X9087Y20034D02*
X9287D01*
X9080Y20970D02*
Y21170D01*
X8980Y21070D02*
X9180D01*
X9080Y21957D02*
Y22157D01*
X8980Y22057D02*
X9180D01*
X5390Y21863D02*
X5590D01*
X5490Y21763D02*
Y21963D01*
X6747Y20964D02*
X6947D01*
X6847Y20864D02*
Y21064D01*
X6747Y20204D02*
X6947D01*
X6847Y20104D02*
Y20304D01*
X6747Y19444D02*
X6947D01*
X6847Y19344D02*
Y19544D01*
X6619Y12464D02*
X6819D01*
X6719Y12364D02*
Y12564D01*
X6619Y13224D02*
X6819D01*
X6719Y13124D02*
Y13324D01*
X8089Y13454D02*
X8289D01*
X8189Y13354D02*
Y13554D01*
X8089Y14474D02*
X8289D01*
X8189Y14374D02*
Y14574D01*
X10538Y11237D02*
Y11437D01*
X10438Y11337D02*
X10638D01*
X11258Y11237D02*
Y11437D01*
X11158Y11337D02*
X11358D01*
X6084Y5386D02*
X6284D01*
X6184Y5286D02*
Y5486D01*
X7554Y5386D02*
X7754D01*
X7654Y5286D02*
Y5486D01*
X8974Y5386D02*
X9174D01*
X9074Y5286D02*
Y5486D01*
X10454Y5386D02*
X10654D01*
X10554Y5286D02*
Y5486D01*
X6058Y7595D02*
X6258D01*
X6158Y7495D02*
Y7695D01*
X7498Y7595D02*
X7698D01*
X7598Y7495D02*
Y7695D01*
X8958Y7595D02*
X9158D01*
X9058Y7495D02*
Y7695D01*
X10388Y7595D02*
X10588D01*
X10488Y7495D02*
Y7695D01*
X16557Y7577D02*
X16757D01*
X16657Y7477D02*
Y7677D01*
X29561Y12740D02*
Y12940D01*
X29461Y12840D02*
X29661D01*
X30561Y11390D02*
X30761D01*
X30661Y11290D02*
Y11490D01*
X30561Y12140D02*
X30761D01*
X30661Y12040D02*
Y12240D01*
X31961Y12810D02*
X32161D01*
X32061Y12710D02*
Y12910D01*
X31971Y13570D02*
X32171D01*
X32071Y13470D02*
Y13670D01*
X30411Y10220D02*
Y10420D01*
X30311Y10320D02*
X30511D01*
X28851Y10170D02*
Y10370D01*
X28751Y10270D02*
X28951D01*
X27622Y10881D02*
X27822D01*
X27722Y10781D02*
Y10981D01*
X31734Y9466D02*
X31934D01*
X31834Y9366D02*
Y9566D01*
X25487Y9790D02*
Y9990D01*
X25387Y9890D02*
X25587D01*
X25485Y10520D02*
Y10720D01*
X25385Y10620D02*
X25585D01*
X25467Y11260D02*
Y11460D01*
X25367Y11360D02*
X25567D01*
X25486Y12075D02*
Y12275D01*
X25386Y12175D02*
X25586D01*
X25476Y12823D02*
Y13023D01*
X25376Y12923D02*
X25576D01*
X25476Y13573D02*
Y13773D01*
X25376Y13673D02*
X25576D01*
X17622Y13676D02*
X17822D01*
X17722Y13576D02*
Y13776D01*
X17608Y14706D02*
X17809D01*
X17708Y14606D02*
Y14806D01*
X19059Y14886D02*
X19259D01*
X19159Y14786D02*
Y14986D01*
X19059Y15646D02*
X19259D01*
X19159Y15546D02*
Y15746D01*
X23955Y19915D02*
X24155D01*
X24055Y19815D02*
Y20015D01*
X22749Y19080D02*
X22949D01*
X22849Y18980D02*
Y19180D01*
X25588Y18730D02*
Y18930D01*
X25488Y18830D02*
X25688D01*
X31009Y21148D02*
X31209D01*
X31109Y21048D02*
Y21248D01*
X31009Y20183D02*
X31209D01*
X31109Y20083D02*
Y20283D01*
X31009Y21918D02*
X31209D01*
X31109Y21818D02*
Y22018D01*
X31716Y19194D02*
X31916D01*
X31816Y19094D02*
Y19294D01*
X37414Y14288D02*
Y14488D01*
X37314Y14388D02*
X37514D01*
X37414Y10408D02*
Y10608D01*
X37314Y10508D02*
X37514D01*
X37414Y8520D02*
Y8720D01*
X37314Y8620D02*
X37514D01*
X44280Y11374D02*
Y11574D01*
X44180Y11474D02*
X44380D01*
X19446Y32587D02*
Y32787D01*
X19346Y32687D02*
X19546D01*
X19446Y31134D02*
Y31334D01*
X19346Y31234D02*
X19546D01*
X11731Y26628D02*
Y26928D01*
X11581Y26778D02*
X11881D01*
X11150Y29007D02*
Y29207D01*
X11050Y29107D02*
X11250D01*
X11990Y29000D02*
Y29200D01*
X11890Y29100D02*
X12090D01*
X1431Y25671D02*
X1631D01*
X1531Y25571D02*
Y25771D01*
X733Y25629D02*
Y25829D01*
X633Y25729D02*
X833D01*
X4990Y25560D02*
X5190D01*
X5090Y25460D02*
Y25660D01*
X5010Y24690D02*
X5210D01*
X5110Y24590D02*
Y24790D01*
X3180Y23810D02*
X3380D01*
X3280Y23710D02*
Y23910D01*
X8760Y21080D02*
X8960D01*
X8860Y20980D02*
Y21180D01*
X8760Y22047D02*
X8960D01*
X8860Y21947D02*
Y22147D01*
X8847Y19944D02*
Y20144D01*
X8747Y20044D02*
X8947D01*
X13099Y17946D02*
Y18246D01*
X12949Y18096D02*
X13249D01*
X10577Y17452D02*
X10777D01*
X10677Y17352D02*
Y17552D01*
X10585Y18337D02*
X10785D01*
X10685Y18237D02*
Y18437D01*
X31801Y16923D02*
Y17123D01*
X31701Y17023D02*
X31901D01*
X31841Y15103D02*
Y15303D01*
X31741Y15203D02*
X31941D01*
X27837Y14291D02*
X28037D01*
X27937Y14191D02*
Y14391D01*
X25777Y14408D02*
X25977D01*
X25877Y14308D02*
Y14508D01*
X25850Y13573D02*
Y13773D01*
X25750Y13673D02*
X25950D01*
X25850Y12823D02*
Y13023D01*
X25750Y12923D02*
X25950D01*
X25860Y12075D02*
Y12275D01*
X25760Y12175D02*
X25960D01*
X25841Y11260D02*
Y11460D01*
X25741Y11360D02*
X25941D01*
X25851Y10520D02*
Y10720D01*
X25751Y10620D02*
X25951D01*
X25847Y9739D02*
Y9939D01*
X25747Y9839D02*
X25947D01*
X25822Y8883D02*
Y9083D01*
X25722Y8983D02*
X25922D01*
X25732Y8223D02*
X25932D01*
X25832Y8123D02*
Y8323D01*
X27281Y8690D02*
X27481D01*
X27381Y8590D02*
Y8790D01*
X28011Y8690D02*
X28211D01*
X28111Y8590D02*
Y8790D01*
X28751Y8690D02*
X28951D01*
X28851Y8590D02*
Y8790D01*
X29481Y8684D02*
X29681D01*
X29581Y8584D02*
Y8784D01*
X30371Y8730D02*
X30571D01*
X30471Y8630D02*
Y8830D01*
X31111Y8720D02*
X31311D01*
X31211Y8620D02*
Y8820D01*
X36554Y7928D02*
Y8128D01*
X36454Y8028D02*
X36654D01*
X36554Y9104D02*
Y9304D01*
X36454Y9204D02*
X36654D01*
X36554Y9847D02*
Y10047D01*
X36454Y9947D02*
X36654D01*
X36554Y11040D02*
Y11240D01*
X36454Y11140D02*
X36654D01*
X36554Y11783D02*
Y11983D01*
X36454Y11883D02*
X36654D01*
X36554Y13035D02*
Y13235D01*
X36454Y13135D02*
X36654D01*
X36554Y13778D02*
Y13978D01*
X36454Y13878D02*
X36654D01*
X36554Y14838D02*
Y15038D01*
X36454Y14938D02*
X36654D01*
X42018Y16928D02*
Y17128D01*
X41918Y17028D02*
X42118D01*
X41978Y18748D02*
Y18948D01*
X41878Y18848D02*
X42078D01*
X33033Y21514D02*
Y21714D01*
X32933Y21614D02*
X33133D01*
X33042Y22228D02*
Y22428D01*
X32942Y22328D02*
X33142D01*
X33043Y23358D02*
Y23558D01*
X32943Y23458D02*
X33143D01*
X33042Y24078D02*
Y24278D01*
X32942Y24178D02*
X33142D01*
X33048Y24818D02*
Y25018D01*
X32948Y24918D02*
X33148D01*
X36023Y29223D02*
Y29423D01*
X35923Y29323D02*
X36123D01*
X36023Y27753D02*
Y27953D01*
X35923Y27853D02*
X36123D01*
X26413Y29913D02*
Y30113D01*
X26313Y30013D02*
X26513D01*
X24033Y29913D02*
Y30113D01*
X23933Y30013D02*
X24133D01*
X1520Y19350D02*
X1720D01*
X1620Y19250D02*
Y19450D01*
X1541Y17660D02*
X1741D01*
X1641Y17560D02*
Y17760D01*
X1516Y18515D02*
X1716D01*
X1616Y18415D02*
Y18615D01*
X1520Y20169D02*
X1720D01*
X1620Y20069D02*
Y20269D01*
X16021Y27961D02*
X16221D01*
X16121Y27861D02*
Y28061D01*
X28206Y25798D02*
X28406D01*
X28306Y25698D02*
Y25898D01*
X9843Y14619D02*
X10043D01*
X9943Y14519D02*
Y14719D01*
X41908Y17874D02*
X42108D01*
X42008Y17774D02*
Y17974D01*
X34315Y14953D02*
X34515D01*
X34415Y14853D02*
Y15053D01*
X3500Y25684D02*
Y25984D01*
X3350Y25834D02*
X3650D01*
X3006Y28860D02*
Y29060D01*
X2906Y28960D02*
X3106D01*
X11480Y31306D02*
Y31606D01*
X11330Y31456D02*
X11630D01*
X2970Y30914D02*
Y31214D01*
X2820Y31064D02*
X3120D01*
X32991Y14838D02*
Y15038D01*
X32891Y14938D02*
X33091D01*
X35341Y17043D02*
X35541D01*
X35441Y16943D02*
Y17143D01*
X35451Y15153D02*
Y15353D01*
X35351Y15253D02*
X35551D01*
X35431Y17043D02*
Y17243D01*
X35331Y17143D02*
X35531D01*
X45518Y18868D02*
X45718D01*
X45618Y18768D02*
Y18968D01*
X44468Y16778D02*
X44668D01*
X44568Y16678D02*
Y16878D01*
X1136Y18495D02*
X1336D01*
X1236Y18395D02*
Y18595D01*
X1140Y19340D02*
X1340D01*
X1240Y19240D02*
Y19440D01*
X1140Y20179D02*
X1340D01*
X1240Y20079D02*
Y20279D01*
X42823Y7369D02*
X43023D01*
X42923Y7269D02*
Y7469D01*
X43683Y7279D02*
Y7479D01*
X43583Y7379D02*
X43783D01*
X9758Y7495D02*
Y7695D01*
X9658Y7595D02*
X9858D01*
X6868Y7495D02*
Y7695D01*
X6768Y7595D02*
X6968D01*
X9824Y5286D02*
Y5486D01*
X9724Y5386D02*
X9924D01*
X5289Y7495D02*
Y7695D01*
X5189Y7595D02*
X5389D01*
X8344Y5286D02*
Y5486D01*
X8244Y5386D02*
X8444D01*
X6924Y5286D02*
Y5486D01*
X6824Y5386D02*
X7024D01*
X5316Y5286D02*
Y5486D01*
X5216Y5386D02*
X5416D01*
X8328Y7495D02*
Y7695D01*
X8228Y7595D02*
X8428D01*
X33833Y19474D02*
X34033D01*
X33933Y19374D02*
Y19574D01*
X16186Y30574D02*
Y30774D01*
X16086Y30674D02*
X16286D01*
X16186Y31334D02*
Y31534D01*
X16086Y31434D02*
X16286D01*
X16657Y6707D02*
Y6907D01*
X16557Y6807D02*
X16757D01*
X26732Y34025D02*
X26932D01*
X26832Y33925D02*
Y34125D01*
X24287Y34025D02*
X24487D01*
X24387Y33925D02*
Y34125D01*
X19540Y7564D02*
Y7764D01*
X19440Y7664D02*
X19640D01*
X19540Y10147D02*
Y10347D01*
X19440Y10247D02*
X19640D01*
X15326Y10571D02*
Y10771D01*
X15226Y10671D02*
X15426D01*
X15326Y8070D02*
Y8270D01*
X15226Y8170D02*
X15426D01*
X30840Y32730D02*
X31040D01*
X30940Y32630D02*
Y32830D01*
X31600Y32730D02*
X31800D01*
X31700Y32630D02*
Y32830D01*
X38681Y24494D02*
X38881D01*
X38781Y24394D02*
Y24594D01*
X38681Y23768D02*
X38881D01*
X38781Y23668D02*
Y23868D01*
X38681Y21591D02*
X38881D01*
X38781Y21491D02*
Y21691D01*
X38681Y20140D02*
X38881D01*
X38781Y20040D02*
Y20240D01*
X38681Y20865D02*
X38881D01*
X38781Y20765D02*
Y20965D01*
X38681Y19414D02*
X38881D01*
X38781Y19314D02*
Y19514D01*
X38681Y23042D02*
X38881D01*
X38781Y22942D02*
Y23142D01*
X38681Y22317D02*
X38881D01*
X38781Y22217D02*
Y22417D01*
X28168Y18830D02*
X28368D01*
X28268Y18730D02*
Y18930D01*
X29448Y25913D02*
X29648D01*
X29548Y25813D02*
Y26013D01*
X32171Y25528D02*
Y25728D01*
X32071Y25628D02*
X32271D01*
X29818Y18830D02*
X30018D01*
X29918Y18730D02*
Y18930D01*
X24401Y18830D02*
X24601D01*
X24501Y18730D02*
Y18930D01*
X22809Y25574D02*
Y25774D01*
X22709Y25674D02*
X22909D01*
X25618Y25913D02*
X25818D01*
X25718Y25813D02*
Y26013D01*
X30607Y18830D02*
X30807D01*
X30707Y18730D02*
Y18930D01*
X30873Y25913D02*
X31073D01*
X30973Y25813D02*
Y26013D01*
X27741Y10010D02*
Y10210D01*
X27641Y10110D02*
X27841D01*
X28681Y12840D02*
X28881D01*
X28781Y12740D02*
Y12940D01*
X27701Y11560D02*
Y11760D01*
X27601Y11660D02*
X27801D01*
X33541Y9533D02*
X33741D01*
X33641Y9433D02*
Y9633D01*
X29511Y10270D02*
X29711D01*
X29611Y10170D02*
Y10370D01*
X27937Y14565D02*
Y14765D01*
X27837Y14665D02*
X28037D01*
X28851Y8216D02*
Y8416D01*
X28751Y8316D02*
X28951D01*
X31221Y7990D02*
X31421D01*
X31321Y7890D02*
Y8090D01*
X30476Y7801D02*
Y8001D01*
X30376Y7901D02*
X30576D01*
X38970Y14744D02*
X39170D01*
X39070Y14644D02*
Y14844D01*
X45560Y13634D02*
Y13834D01*
X45460Y13734D02*
X45660D01*
X45620Y9244D02*
Y9444D01*
X45520Y9344D02*
X45720D01*
X37314Y12493D02*
X37514D01*
X37414Y12393D02*
Y12593D01*
X45608Y18868D02*
Y19068D01*
X45508Y18968D02*
X45708D01*
X45628Y16978D02*
Y17178D01*
X45528Y17078D02*
X45728D01*
X33517Y9804D02*
X33717D01*
X33617Y9704D02*
Y9904D01*
X31846Y13105D02*
Y13305D01*
X31746Y13205D02*
X31946D01*
X32011Y9790D02*
Y9990D01*
X31911Y9890D02*
X32111D01*
X15769Y15066D02*
X15969D01*
X15869Y14966D02*
Y15166D01*
X21939Y17428D02*
X22239D01*
X22089Y17278D02*
Y17578D01*
D21*
X10141Y7430D02*
Y7830D01*
X9941Y7630D02*
X10341D01*
X7251Y7430D02*
Y7830D01*
X7051Y7630D02*
X7451D01*
X10207Y5220D02*
Y5620D01*
X10007Y5420D02*
X10407D01*
X5811Y7430D02*
Y7830D01*
X5611Y7630D02*
X6011D01*
X8727Y5220D02*
Y5620D01*
X8527Y5420D02*
X8927D01*
X7307Y5220D02*
Y5620D01*
X7107Y5420D02*
X7507D01*
X5837Y5220D02*
Y5620D01*
X5637Y5420D02*
X6037D01*
X33373Y19294D02*
Y19694D01*
X33173Y19494D02*
X33573D01*
X8711Y7430D02*
Y7830D01*
X8511Y7630D02*
X8911D01*
D25*
X0Y0D02*
X27Y-27D01*
X47257D01*
X47261Y-32D01*
Y49D01*
Y39359D01*
X47263Y39361D01*
X20D02*
X47263D01*
X0Y39340D02*
X20Y39361D01*
X0Y0D02*
Y39340D01*
M02*
