G04*
G04 #@! TF.GenerationSoftware,Altium Limited,Altium Designer,18.1.7 (191)*
G04*
G04 Layer_Color=8388736*
%FSLAX24Y24*%
%MOIN*%
G70*
G01*
G75*
%ADD25C,0.0250*%
%ADD56R,0.3360X0.2080*%
%ADD57R,0.0680X0.0930*%
%ADD58R,0.4330X0.0830*%
%ADD59R,0.0552X0.0434*%
%ADD60R,0.0730X0.0320*%
%ADD61C,0.0787*%
%ADD62R,0.1182X0.1182*%
%ADD63R,0.2080X0.3360*%
%ADD64R,0.0930X0.0680*%
%ADD65R,0.0830X0.4330*%
%ADD66R,0.0631X0.0277*%
%ADD67R,0.0592X0.0356*%
%ADD68R,0.0434X0.0552*%
%ADD69R,0.0356X0.0592*%
%ADD70R,0.0671X0.0237*%
%ADD71R,0.0356X0.0395*%
%ADD72R,0.0399X0.0190*%
%ADD73R,0.0190X0.0399*%
%ADD74R,0.2088X0.2088*%
%ADD75R,0.0671X0.0926*%
%ADD76R,0.1576X0.0926*%
%ADD77R,0.0240X0.0705*%
%ADD78R,0.0320X0.0730*%
%ADD79R,0.0722X0.0249*%
%ADD80R,0.1182X0.1182*%
%ADD81R,0.0316X0.0552*%
%ADD82R,0.3655X0.3655*%
%ADD83R,0.0631X0.0198*%
%ADD84R,0.0198X0.0631*%
%ADD85R,0.0434X0.0474*%
%ADD86R,0.0580X0.0379*%
%ADD87C,0.0680*%
%ADD88C,0.0671*%
%ADD89R,0.0671X0.0671*%
%ADD90C,0.2442*%
%ADD91O,0.1537X0.0434*%
%ADD92C,0.1954*%
%ADD93R,0.0749X0.0749*%
%ADD94C,0.0749*%
%ADD95R,0.0749X0.0749*%
%ADD96C,0.0867*%
%ADD97C,0.0946*%
%ADD98C,0.0631*%
%ADD99C,0.1360*%
%ADD100C,0.0580*%
%ADD101C,0.0360*%
D25*
X0Y0D02*
X27Y-27D01*
X47257D01*
X47261Y-32D01*
Y49D01*
Y39359D01*
X47263Y39361D01*
X20D02*
X47263D01*
X0Y39340D02*
X20Y39361D01*
X0Y0D02*
Y39340D01*
D56*
X12295Y21097D02*
D03*
D57*
X11295Y24947D02*
D03*
X12295D02*
D03*
X13295D02*
D03*
D58*
X12295Y19747D02*
D03*
D59*
X15869Y13196D02*
D03*
Y14023D02*
D03*
X9931Y13622D02*
D03*
Y12795D02*
D03*
X19446Y33100D02*
D03*
Y32274D02*
D03*
X19446Y31647D02*
D03*
Y30820D02*
D03*
X11150Y29520D02*
D03*
Y28693D02*
D03*
X11990Y29513D02*
D03*
Y28687D02*
D03*
X733Y26143D02*
D03*
Y25316D02*
D03*
X31801Y17436D02*
D03*
Y16609D02*
D03*
X31841Y15616D02*
D03*
Y14789D02*
D03*
X42018Y17442D02*
D03*
Y16615D02*
D03*
X41978Y19262D02*
D03*
Y18435D02*
D03*
X36023Y28909D02*
D03*
Y29736D02*
D03*
Y27439D02*
D03*
Y28266D02*
D03*
X9943Y14206D02*
D03*
Y15033D02*
D03*
X15869Y15480D02*
D03*
Y14653D02*
D03*
D60*
X18552Y7467D02*
D03*
Y7967D02*
D03*
Y8467D02*
D03*
Y8967D02*
D03*
Y9467D02*
D03*
Y9967D02*
D03*
Y10467D02*
D03*
Y10967D02*
D03*
X16322D02*
D03*
Y10467D02*
D03*
Y9967D02*
D03*
Y9467D02*
D03*
Y8967D02*
D03*
Y8467D02*
D03*
Y7967D02*
D03*
Y7467D02*
D03*
D61*
X3740Y35630D02*
D03*
X43504Y3740D02*
D03*
X3740D02*
D03*
X43504Y35630D02*
D03*
D62*
X12607Y26758D02*
D03*
X10835D02*
D03*
X13975Y18077D02*
D03*
X12204D02*
D03*
X22984Y17447D02*
D03*
X21213D02*
D03*
D63*
X8470Y30720D02*
D03*
D64*
X4620Y29720D02*
D03*
Y30720D02*
D03*
Y31720D02*
D03*
D65*
X9820Y30720D02*
D03*
D66*
X2070Y22328D02*
D03*
Y22643D02*
D03*
Y22958D02*
D03*
Y23273D02*
D03*
Y23587D02*
D03*
D67*
X1531Y25297D02*
D03*
Y26045D02*
D03*
X27937Y13917D02*
D03*
Y14665D02*
D03*
X27381Y9064D02*
D03*
Y8316D02*
D03*
X28111Y9064D02*
D03*
Y8316D02*
D03*
X28851D02*
D03*
Y9064D02*
D03*
X29581Y9058D02*
D03*
Y8310D02*
D03*
X30471Y9104D02*
D03*
Y8356D02*
D03*
X31211Y8346D02*
D03*
Y9094D02*
D03*
X35451Y15627D02*
D03*
Y14879D02*
D03*
X35431Y17517D02*
D03*
Y16769D02*
D03*
X19540Y8038D02*
D03*
Y7290D02*
D03*
X19540Y9873D02*
D03*
Y10621D02*
D03*
X15326Y10297D02*
D03*
Y11045D02*
D03*
X15326Y8544D02*
D03*
Y7796D02*
D03*
X45608Y19342D02*
D03*
Y18594D02*
D03*
X45628Y17452D02*
D03*
Y16704D02*
D03*
X33617Y10178D02*
D03*
Y9430D02*
D03*
D68*
X4677Y25560D02*
D03*
X5503D02*
D03*
X4697Y24690D02*
D03*
X5523D02*
D03*
X11091Y17452D02*
D03*
X10264D02*
D03*
X11099Y18337D02*
D03*
X10272D02*
D03*
D69*
X3654Y23810D02*
D03*
X2906D02*
D03*
X9221Y20044D02*
D03*
X8473D02*
D03*
X25503Y14408D02*
D03*
X26251D02*
D03*
X26224Y13673D02*
D03*
X25476D02*
D03*
X26224Y12923D02*
D03*
X25476D02*
D03*
X26234Y12175D02*
D03*
X25486D02*
D03*
X26215Y11360D02*
D03*
X25467D02*
D03*
X26225Y10620D02*
D03*
X25477D02*
D03*
X25473Y9839D02*
D03*
X26221D02*
D03*
X26196Y8983D02*
D03*
X25448D02*
D03*
X25458Y8223D02*
D03*
X26206D02*
D03*
X36928Y8028D02*
D03*
X36180D02*
D03*
X36928Y9204D02*
D03*
X36180D02*
D03*
X36928Y9947D02*
D03*
X36180D02*
D03*
X36928Y11140D02*
D03*
X36180D02*
D03*
X36928Y11883D02*
D03*
X36180D02*
D03*
X36928Y13135D02*
D03*
X36180D02*
D03*
X36928Y13878D02*
D03*
X36180D02*
D03*
X36928Y14938D02*
D03*
X36180D02*
D03*
X32659Y21614D02*
D03*
X33407D02*
D03*
X32668Y22328D02*
D03*
X33416D02*
D03*
X32668Y23458D02*
D03*
X33417D02*
D03*
X32668Y24178D02*
D03*
X33416D02*
D03*
X32674Y24918D02*
D03*
X33422D02*
D03*
X26787Y30013D02*
D03*
X26039D02*
D03*
X23659Y30013D02*
D03*
X24407D02*
D03*
X24013Y34025D02*
D03*
X24761D02*
D03*
X26457Y34025D02*
D03*
X27206D02*
D03*
X3380Y28960D02*
D03*
X2632D02*
D03*
X31472Y13205D02*
D03*
X32220D02*
D03*
X31637Y9890D02*
D03*
X32385D02*
D03*
D70*
X7524Y22543D02*
D03*
Y22287D02*
D03*
Y22031D02*
D03*
Y21775D02*
D03*
Y21520D02*
D03*
Y21264D02*
D03*
Y21008D02*
D03*
Y20752D02*
D03*
Y20496D02*
D03*
Y20240D02*
D03*
Y19984D02*
D03*
Y19728D02*
D03*
Y19472D02*
D03*
Y19216D02*
D03*
X4670D02*
D03*
Y19472D02*
D03*
Y19728D02*
D03*
Y19984D02*
D03*
Y20240D02*
D03*
Y20496D02*
D03*
Y20752D02*
D03*
Y21008D02*
D03*
Y21264D02*
D03*
Y21520D02*
D03*
Y21775D02*
D03*
Y22031D02*
D03*
Y22287D02*
D03*
Y22543D02*
D03*
D71*
X8545Y21080D02*
D03*
X9175D02*
D03*
X8546Y22047D02*
D03*
X9175D02*
D03*
X1305Y19350D02*
D03*
X1935D02*
D03*
X1326Y17660D02*
D03*
X1956D02*
D03*
X1301Y18515D02*
D03*
X1931D02*
D03*
X1305Y20169D02*
D03*
X1935D02*
D03*
D72*
X30439Y10487D02*
D03*
Y10684D02*
D03*
Y10881D02*
D03*
Y11078D02*
D03*
Y11275D02*
D03*
Y11472D02*
D03*
Y11669D02*
D03*
Y11865D02*
D03*
Y12062D02*
D03*
Y12259D02*
D03*
Y12456D02*
D03*
Y12653D02*
D03*
X27722D02*
D03*
Y12456D02*
D03*
Y12259D02*
D03*
Y12062D02*
D03*
Y11865D02*
D03*
Y11669D02*
D03*
Y11472D02*
D03*
Y11275D02*
D03*
Y11078D02*
D03*
Y10881D02*
D03*
Y10684D02*
D03*
Y10487D02*
D03*
D73*
X30163Y12928D02*
D03*
X29967D02*
D03*
X29770D02*
D03*
X29573D02*
D03*
X29376D02*
D03*
X29179D02*
D03*
X28982D02*
D03*
X28785D02*
D03*
X28589D02*
D03*
X28392D02*
D03*
X28195D02*
D03*
X27998D02*
D03*
Y10212D02*
D03*
X28195D02*
D03*
X28392D02*
D03*
X28589D02*
D03*
X28785D02*
D03*
X28982D02*
D03*
X29179D02*
D03*
X29376D02*
D03*
X29573D02*
D03*
X29770D02*
D03*
X29967D02*
D03*
X30163D02*
D03*
D74*
X29081Y11570D02*
D03*
D75*
X44714Y19100D02*
D03*
X43808D02*
D03*
X42903D02*
D03*
X32796Y17274D02*
D03*
X33701D02*
D03*
X34607D02*
D03*
D76*
X43808Y16797D02*
D03*
X33701Y14971D02*
D03*
D77*
X31500Y33148D02*
D03*
X31760D02*
D03*
X32020D02*
D03*
X32280D02*
D03*
X32540D02*
D03*
X32800D02*
D03*
X33060D02*
D03*
X33320D02*
D03*
Y30753D02*
D03*
X33060D02*
D03*
X32800D02*
D03*
X32540D02*
D03*
X32280D02*
D03*
X32020D02*
D03*
X31760D02*
D03*
X31500D02*
D03*
X11358Y9352D02*
D03*
X11618D02*
D03*
X11098D02*
D03*
X11878D02*
D03*
X12138D02*
D03*
X12398D02*
D03*
X12658D02*
D03*
X12918D02*
D03*
Y11747D02*
D03*
X12658D02*
D03*
X12398D02*
D03*
X12138D02*
D03*
X11878D02*
D03*
X11618D02*
D03*
X11358D02*
D03*
X11098D02*
D03*
D78*
X23684Y30930D02*
D03*
X24184D02*
D03*
X24684D02*
D03*
X25184D02*
D03*
X25684D02*
D03*
X27184D02*
D03*
Y33160D02*
D03*
X26684D02*
D03*
X26184D02*
D03*
X25684D02*
D03*
X25184D02*
D03*
X24684D02*
D03*
X24184D02*
D03*
X23684D02*
D03*
X26684Y30930D02*
D03*
X26184D02*
D03*
D79*
X6295Y12931D02*
D03*
Y13186D02*
D03*
Y13442D02*
D03*
Y13698D02*
D03*
Y13954D02*
D03*
Y14210D02*
D03*
Y14466D02*
D03*
Y14722D02*
D03*
Y14978D02*
D03*
Y15234D02*
D03*
X8929Y15234D02*
D03*
Y14978D02*
D03*
Y14722D02*
D03*
Y14466D02*
D03*
Y14210D02*
D03*
Y13954D02*
D03*
Y13698D02*
D03*
Y13442D02*
D03*
Y13186D02*
D03*
Y12931D02*
D03*
X16905Y15214D02*
D03*
Y14958D02*
D03*
Y14702D02*
D03*
Y14446D02*
D03*
Y14191D02*
D03*
Y13935D02*
D03*
Y13679D02*
D03*
Y13423D02*
D03*
Y13167D02*
D03*
Y12911D02*
D03*
X19539Y12911D02*
D03*
Y13167D02*
D03*
Y13423D02*
D03*
Y13679D02*
D03*
Y13935D02*
D03*
Y14191D02*
D03*
Y14446D02*
D03*
Y14702D02*
D03*
Y14958D02*
D03*
Y15214D02*
D03*
X37053Y29500D02*
D03*
Y29244D02*
D03*
Y28988D02*
D03*
Y28733D02*
D03*
Y28477D02*
D03*
Y28221D02*
D03*
Y27965D02*
D03*
Y27709D02*
D03*
Y27453D02*
D03*
Y27197D02*
D03*
X39687Y27197D02*
D03*
Y27453D02*
D03*
Y27709D02*
D03*
Y27965D02*
D03*
Y28221D02*
D03*
Y28477D02*
D03*
Y28733D02*
D03*
Y28989D02*
D03*
Y29244D02*
D03*
Y29500D02*
D03*
X18406Y30972D02*
D03*
Y31228D02*
D03*
Y31484D02*
D03*
Y31740D02*
D03*
Y31996D02*
D03*
Y32251D02*
D03*
Y32507D02*
D03*
Y32763D02*
D03*
Y33019D02*
D03*
Y33275D02*
D03*
X15772Y33275D02*
D03*
Y33019D02*
D03*
Y32763D02*
D03*
Y32507D02*
D03*
Y32251D02*
D03*
Y31996D02*
D03*
Y31740D02*
D03*
Y31484D02*
D03*
Y31228D02*
D03*
Y30972D02*
D03*
D80*
X3520Y24938D02*
D03*
Y26710D02*
D03*
X11500Y30560D02*
D03*
Y32332D02*
D03*
X2990Y30168D02*
D03*
Y31940D02*
D03*
D81*
X10318Y7984D02*
D03*
Y7275D02*
D03*
X9944Y7984D02*
D03*
Y7275D02*
D03*
X7428Y7984D02*
D03*
Y7275D02*
D03*
X7054Y7984D02*
D03*
Y7275D02*
D03*
X10384Y5774D02*
D03*
Y5066D02*
D03*
X10010Y5774D02*
D03*
Y5066D02*
D03*
X5988Y7984D02*
D03*
Y7275D02*
D03*
X5614Y7984D02*
D03*
Y7275D02*
D03*
X8904Y5774D02*
D03*
Y5066D02*
D03*
X8530Y5774D02*
D03*
Y5066D02*
D03*
X7484Y5774D02*
D03*
Y5066D02*
D03*
X7110Y5774D02*
D03*
Y5066D02*
D03*
X6014Y5774D02*
D03*
Y5066D02*
D03*
X5640Y5774D02*
D03*
Y5066D02*
D03*
X8888Y7984D02*
D03*
Y7275D02*
D03*
X8514Y7984D02*
D03*
Y7275D02*
D03*
D82*
X27608Y22358D02*
D03*
D83*
X31821Y25803D02*
D03*
Y25606D02*
D03*
Y25409D02*
D03*
Y25212D02*
D03*
Y25015D02*
D03*
Y24818D02*
D03*
Y24622D02*
D03*
Y24425D02*
D03*
Y24228D02*
D03*
Y24031D02*
D03*
Y23834D02*
D03*
Y23637D02*
D03*
Y23441D02*
D03*
Y23244D02*
D03*
Y23047D02*
D03*
Y22850D02*
D03*
Y22653D02*
D03*
Y22456D02*
D03*
Y22259D02*
D03*
Y22063D02*
D03*
Y21866D02*
D03*
Y21669D02*
D03*
Y21472D02*
D03*
Y21275D02*
D03*
Y21078D02*
D03*
Y20881D02*
D03*
Y20685D02*
D03*
Y20488D02*
D03*
Y20291D02*
D03*
Y20094D02*
D03*
Y19897D02*
D03*
Y19700D02*
D03*
Y19504D02*
D03*
Y19307D02*
D03*
Y19110D02*
D03*
Y18913D02*
D03*
X23395D02*
D03*
Y19110D02*
D03*
Y19307D02*
D03*
Y19504D02*
D03*
Y19700D02*
D03*
Y19897D02*
D03*
Y20094D02*
D03*
Y20291D02*
D03*
Y20488D02*
D03*
Y20685D02*
D03*
Y20881D02*
D03*
Y21078D02*
D03*
Y21275D02*
D03*
Y21472D02*
D03*
Y21669D02*
D03*
Y21866D02*
D03*
Y22063D02*
D03*
Y22259D02*
D03*
Y22456D02*
D03*
Y22653D02*
D03*
Y22850D02*
D03*
Y23047D02*
D03*
Y23244D02*
D03*
Y23441D02*
D03*
Y23637D02*
D03*
Y23834D02*
D03*
Y24031D02*
D03*
Y24228D02*
D03*
Y24425D02*
D03*
Y24622D02*
D03*
Y24818D02*
D03*
Y25015D02*
D03*
Y25212D02*
D03*
Y25409D02*
D03*
Y25606D02*
D03*
Y25803D02*
D03*
D84*
X31053Y18145D02*
D03*
X30856D02*
D03*
X30659D02*
D03*
X30462D02*
D03*
X30265D02*
D03*
X30069D02*
D03*
X29872D02*
D03*
X29675D02*
D03*
X29478D02*
D03*
X29281D02*
D03*
X29084D02*
D03*
X28887D02*
D03*
X28691D02*
D03*
X28494D02*
D03*
X28297D02*
D03*
X28100D02*
D03*
X27903D02*
D03*
X27706D02*
D03*
X27510D02*
D03*
X27313D02*
D03*
X27116D02*
D03*
X26919D02*
D03*
X26722D02*
D03*
X26525D02*
D03*
X26328D02*
D03*
X26132D02*
D03*
X25935D02*
D03*
X25738D02*
D03*
X25541D02*
D03*
X25344D02*
D03*
X25147D02*
D03*
X24950D02*
D03*
X24754D02*
D03*
X24557D02*
D03*
X24360D02*
D03*
X24163D02*
D03*
Y26570D02*
D03*
X24360D02*
D03*
X24557D02*
D03*
X24754D02*
D03*
X24950D02*
D03*
X25147D02*
D03*
X25344D02*
D03*
X25541D02*
D03*
X25738D02*
D03*
X25935D02*
D03*
X26132D02*
D03*
X26328D02*
D03*
X26525D02*
D03*
X26722D02*
D03*
X26919D02*
D03*
X27116D02*
D03*
X27313D02*
D03*
X27510D02*
D03*
X27706D02*
D03*
X27903D02*
D03*
X28100D02*
D03*
X28297D02*
D03*
X28494D02*
D03*
X28691D02*
D03*
X28887D02*
D03*
X29084D02*
D03*
X29281D02*
D03*
X29478D02*
D03*
X29675D02*
D03*
X29872D02*
D03*
X30069D02*
D03*
X30265D02*
D03*
X30462D02*
D03*
X30659D02*
D03*
X30856D02*
D03*
X31053D02*
D03*
D85*
X32960Y19120D02*
D03*
Y19868D02*
D03*
X33786Y19120D02*
D03*
Y19868D02*
D03*
D86*
X37855Y22734D02*
D03*
Y22234D02*
D03*
Y21734D02*
D03*
Y21234D02*
D03*
Y20734D02*
D03*
Y20234D02*
D03*
X40855Y22734D02*
D03*
Y22234D02*
D03*
Y21734D02*
D03*
Y21234D02*
D03*
Y20734D02*
D03*
Y20234D02*
D03*
Y23234D02*
D03*
X37855D02*
D03*
Y23734D02*
D03*
X40855D02*
D03*
D87*
X4435Y33942D02*
D03*
X5435D02*
D03*
X6435D02*
D03*
X7435D02*
D03*
X8435D02*
D03*
X9435D02*
D03*
X6600Y27210D02*
D03*
X5600D02*
D03*
X7600D02*
D03*
X1180Y32030D02*
D03*
Y31030D02*
D03*
Y30030D02*
D03*
Y29030D02*
D03*
X3198Y17548D02*
D03*
Y18548D02*
D03*
Y19548D02*
D03*
Y20548D02*
D03*
D88*
X19611Y27243D02*
D03*
Y26243D02*
D03*
X18611Y27243D02*
D03*
Y26243D02*
D03*
X17611Y27243D02*
D03*
Y26243D02*
D03*
X16611Y27243D02*
D03*
Y26243D02*
D03*
X15611Y27243D02*
D03*
X44620Y8911D02*
D03*
Y9911D02*
D03*
Y13132D02*
D03*
Y14132D02*
D03*
D89*
X15611Y26243D02*
D03*
D90*
X45276Y1969D02*
D03*
X1969Y37402D02*
D03*
Y1969D02*
D03*
X45276Y37402D02*
D03*
D91*
X1125Y24395D02*
D03*
Y21521D02*
D03*
D92*
X6320Y2594D02*
D03*
X16158D02*
D03*
X19246D02*
D03*
X29084D02*
D03*
X32172D02*
D03*
X42011D02*
D03*
X44638Y23854D02*
D03*
Y33693D02*
D03*
X28380Y36866D02*
D03*
X18542D02*
D03*
X15149D02*
D03*
X5310D02*
D03*
X2542Y15326D02*
D03*
Y5487D02*
D03*
X31773Y36866D02*
D03*
X41612D02*
D03*
D93*
X13420Y3153D02*
D03*
X26346D02*
D03*
X39272D02*
D03*
X21280Y36307D02*
D03*
X8048D02*
D03*
X34511D02*
D03*
D94*
X12875Y2035D02*
D03*
X12330Y3153D02*
D03*
X11784Y2035D02*
D03*
X11239Y3153D02*
D03*
X10694Y2035D02*
D03*
X10148Y3153D02*
D03*
X9603Y2035D02*
D03*
X9058Y3153D02*
D03*
X25801Y2035D02*
D03*
X25256Y3153D02*
D03*
X24710Y2035D02*
D03*
X24165Y3153D02*
D03*
X23620Y2035D02*
D03*
X23075Y3153D02*
D03*
X22529Y2035D02*
D03*
X21984Y3153D02*
D03*
X38727Y2035D02*
D03*
X38182Y3153D02*
D03*
X37637Y2035D02*
D03*
X37091Y3153D02*
D03*
X36546Y2035D02*
D03*
X36001Y3153D02*
D03*
X35456Y2035D02*
D03*
X34910Y3153D02*
D03*
X45197Y30409D02*
D03*
X44079Y29864D02*
D03*
X45197Y29319D02*
D03*
X44079Y28774D02*
D03*
X45197Y28228D02*
D03*
X44079Y27683D02*
D03*
X45197Y27138D02*
D03*
X44079Y26593D02*
D03*
X21825Y37425D02*
D03*
X22370Y36307D02*
D03*
X22916Y37425D02*
D03*
X23461Y36307D02*
D03*
X24006Y37425D02*
D03*
X24552Y36307D02*
D03*
X25097Y37425D02*
D03*
X25642Y36307D02*
D03*
X8594Y37425D02*
D03*
X9139Y36307D02*
D03*
X9684Y37425D02*
D03*
X10230Y36307D02*
D03*
X10775Y37425D02*
D03*
X11320Y36307D02*
D03*
X11865Y37425D02*
D03*
X12411Y36307D02*
D03*
X1983Y8770D02*
D03*
X3101Y9316D02*
D03*
X1983Y9861D02*
D03*
X3101Y10406D02*
D03*
X1983Y10952D02*
D03*
X3101Y11497D02*
D03*
X1983Y12042D02*
D03*
X3101Y12587D02*
D03*
X38874Y36307D02*
D03*
X38328Y37425D02*
D03*
X37783Y36307D02*
D03*
X37238Y37425D02*
D03*
X36693Y36307D02*
D03*
X36147Y37425D02*
D03*
X35602Y36307D02*
D03*
X35057Y37425D02*
D03*
D95*
X44079Y30955D02*
D03*
X3101Y8225D02*
D03*
D96*
X8554Y25090D02*
D03*
X39762Y32962D02*
D03*
X11531Y14854D02*
D03*
X38025Y17748D02*
D03*
X42107Y5428D02*
D03*
D97*
X41788Y14571D02*
D03*
Y8473D02*
D03*
D98*
X39488Y9272D02*
D03*
Y10272D02*
D03*
Y11272D02*
D03*
Y12272D02*
D03*
Y13272D02*
D03*
X40489Y9772D02*
D03*
Y10772D02*
D03*
Y11772D02*
D03*
Y12772D02*
D03*
Y13772D02*
D03*
D99*
X42989D02*
D03*
Y9272D02*
D03*
D100*
X11195Y20247D02*
D03*
X13445D02*
D03*
X12345D02*
D03*
X12945Y21247D02*
D03*
X11795D02*
D03*
X9320Y29620D02*
D03*
Y31870D02*
D03*
Y30770D02*
D03*
X8320Y31370D02*
D03*
Y30220D02*
D03*
D101*
X29124Y23441D02*
D03*
Y22574D02*
D03*
Y21708D02*
D03*
X26092Y20842D02*
D03*
Y21275D02*
D03*
Y21708D02*
D03*
Y22141D02*
D03*
Y22574D02*
D03*
Y23007D02*
D03*
Y23441D02*
D03*
Y23874D02*
D03*
X26525Y20842D02*
D03*
Y21275D02*
D03*
Y21708D02*
D03*
Y22141D02*
D03*
Y22574D02*
D03*
Y23007D02*
D03*
Y23441D02*
D03*
Y23874D02*
D03*
X26958Y20842D02*
D03*
Y21275D02*
D03*
Y21708D02*
D03*
Y22141D02*
D03*
Y22574D02*
D03*
Y23007D02*
D03*
Y23441D02*
D03*
Y23874D02*
D03*
X27391Y20842D02*
D03*
Y21275D02*
D03*
Y21708D02*
D03*
Y22141D02*
D03*
Y22574D02*
D03*
Y23007D02*
D03*
Y23441D02*
D03*
Y23874D02*
D03*
X27824Y20842D02*
D03*
Y21275D02*
D03*
Y21708D02*
D03*
Y22141D02*
D03*
Y22574D02*
D03*
Y23007D02*
D03*
Y23441D02*
D03*
Y23874D02*
D03*
X28258Y20842D02*
D03*
Y21275D02*
D03*
Y21708D02*
D03*
Y22141D02*
D03*
Y22574D02*
D03*
Y23007D02*
D03*
Y23441D02*
D03*
Y23874D02*
D03*
X28691Y20842D02*
D03*
Y21275D02*
D03*
Y21708D02*
D03*
Y22141D02*
D03*
Y22574D02*
D03*
Y23007D02*
D03*
Y23441D02*
D03*
Y23874D02*
D03*
X29124Y20842D02*
D03*
Y21275D02*
D03*
Y22141D02*
D03*
Y23007D02*
D03*
Y23874D02*
D03*
M02*
