G04*
G04 #@! TF.GenerationSoftware,Altium Limited,Altium Designer,18.1.7 (191)*
G04*
G04 Layer_Color=128*
%FSLAX24Y24*%
%MOIN*%
G70*
G01*
G75*
%ADD25C,0.0250*%
%ADD29R,0.0472X0.0354*%
%ADD37R,0.0512X0.0276*%
%ADD38R,0.0354X0.0472*%
%ADD39R,0.0276X0.0512*%
%ADD154R,0.0492X0.0335*%
D25*
X0Y0D02*
X27Y-27D01*
X47257D01*
X47261Y-32D01*
Y49D01*
Y39359D01*
X47263Y39361D01*
X20D02*
X47263D01*
X0Y39340D02*
X20Y39361D01*
X0Y0D02*
Y39340D01*
D29*
X29068Y18417D02*
D03*
Y19243D02*
D03*
X24948Y26327D02*
D03*
Y25500D02*
D03*
X24187Y26327D02*
D03*
Y25500D02*
D03*
X26488Y26327D02*
D03*
Y25500D02*
D03*
X23074Y32372D02*
D03*
Y33198D02*
D03*
X23844Y32372D02*
D03*
Y33198D02*
D03*
X10538Y10923D02*
D03*
Y11750D02*
D03*
X11258Y10923D02*
D03*
Y11750D02*
D03*
X29561Y13253D02*
D03*
Y12427D02*
D03*
X30411Y10733D02*
D03*
Y9907D02*
D03*
X28851Y9857D02*
D03*
Y10683D02*
D03*
X25588Y18417D02*
D03*
Y19243D02*
D03*
X37414Y14802D02*
D03*
Y13975D02*
D03*
Y10922D02*
D03*
Y10095D02*
D03*
Y9033D02*
D03*
Y8206D02*
D03*
X44280Y11887D02*
D03*
Y11060D02*
D03*
X42008Y18287D02*
D03*
Y17461D02*
D03*
X35441Y16629D02*
D03*
Y17456D02*
D03*
X45618Y18455D02*
D03*
Y19282D02*
D03*
X42923Y7782D02*
D03*
Y6956D02*
D03*
X33933Y19887D02*
D03*
Y19060D02*
D03*
X30940Y33144D02*
D03*
Y32317D02*
D03*
X31700Y33144D02*
D03*
Y32317D02*
D03*
X28268Y19243D02*
D03*
Y18417D02*
D03*
X29548Y25500D02*
D03*
Y26327D02*
D03*
X29918Y19243D02*
D03*
Y18417D02*
D03*
X24501Y19243D02*
D03*
Y18417D02*
D03*
X25718Y25500D02*
D03*
Y26327D02*
D03*
X30707Y19243D02*
D03*
Y18417D02*
D03*
X30973Y25500D02*
D03*
Y26327D02*
D03*
X28781Y12427D02*
D03*
Y13253D02*
D03*
X33641Y9120D02*
D03*
Y9947D02*
D03*
X29611Y10683D02*
D03*
Y9857D02*
D03*
X31321Y7577D02*
D03*
Y8403D02*
D03*
X39070Y14330D02*
D03*
Y15157D02*
D03*
X37414Y12080D02*
D03*
Y12907D02*
D03*
D37*
X6184Y5760D02*
D03*
Y5012D02*
D03*
X7654Y5760D02*
D03*
Y5012D02*
D03*
X9074Y5760D02*
D03*
Y5012D02*
D03*
X10554Y5760D02*
D03*
Y5012D02*
D03*
X6158Y7969D02*
D03*
Y7221D02*
D03*
X7598Y7969D02*
D03*
Y7221D02*
D03*
X9058Y7969D02*
D03*
Y7221D02*
D03*
X10488Y7969D02*
D03*
Y7221D02*
D03*
X28306Y26172D02*
D03*
Y25424D02*
D03*
X43683Y7005D02*
D03*
Y7753D02*
D03*
X9758Y7221D02*
D03*
Y7969D02*
D03*
X6868Y7221D02*
D03*
Y7969D02*
D03*
X9824Y5012D02*
D03*
Y5760D02*
D03*
X5289Y7221D02*
D03*
Y7969D02*
D03*
X8344Y5012D02*
D03*
Y5760D02*
D03*
X6924Y5012D02*
D03*
Y5760D02*
D03*
X5316Y5012D02*
D03*
Y5760D02*
D03*
X8328Y7221D02*
D03*
Y7969D02*
D03*
X27937Y14291D02*
D03*
Y15039D02*
D03*
X28851Y7942D02*
D03*
Y8690D02*
D03*
X30476Y8275D02*
D03*
Y7527D02*
D03*
X45560Y13360D02*
D03*
Y14108D02*
D03*
X45620Y8970D02*
D03*
Y9718D02*
D03*
D38*
X31522Y24693D02*
D03*
X30695D02*
D03*
X23695Y21658D02*
D03*
X24522D02*
D03*
X23695Y22398D02*
D03*
X24522D02*
D03*
X23695Y23568D02*
D03*
X24522D02*
D03*
X23695Y24350D02*
D03*
X24522D02*
D03*
X38880Y28983D02*
D03*
X39707D02*
D03*
X38880Y29733D02*
D03*
X39707D02*
D03*
X38257Y27873D02*
D03*
X37430D02*
D03*
X38247Y28983D02*
D03*
X37420D02*
D03*
X17293Y31494D02*
D03*
X18120D02*
D03*
X17293Y32534D02*
D03*
X18120D02*
D03*
X5076Y21863D02*
D03*
X5903D02*
D03*
X7261Y20964D02*
D03*
X6434D02*
D03*
Y20204D02*
D03*
X7261D02*
D03*
X6434Y19444D02*
D03*
X7261D02*
D03*
X7132Y12464D02*
D03*
X6306D02*
D03*
X7132Y13224D02*
D03*
X6306D02*
D03*
X7776Y13454D02*
D03*
X8602D02*
D03*
X7776Y14474D02*
D03*
X8602D02*
D03*
X17071Y7577D02*
D03*
X16244D02*
D03*
X31074Y11390D02*
D03*
X30247D02*
D03*
X31074Y12140D02*
D03*
X30247D02*
D03*
X31647Y12810D02*
D03*
X32474D02*
D03*
X31657Y13570D02*
D03*
X32484D02*
D03*
X27309Y10881D02*
D03*
X28136D02*
D03*
X31420Y9466D02*
D03*
X32247D02*
D03*
X18135Y13676D02*
D03*
X17308D02*
D03*
X18122Y14706D02*
D03*
X17295D02*
D03*
X18745Y14886D02*
D03*
X19572D02*
D03*
X18745Y15646D02*
D03*
X19572D02*
D03*
X23642Y19915D02*
D03*
X24469D02*
D03*
X23262Y19080D02*
D03*
X22435D02*
D03*
X31522Y21148D02*
D03*
X30695D02*
D03*
X31522Y20183D02*
D03*
X30695D02*
D03*
Y21918D02*
D03*
X31522D02*
D03*
X31402Y19194D02*
D03*
X32229D02*
D03*
X16535Y27961D02*
D03*
X15708D02*
D03*
X32578Y14938D02*
D03*
X33405D02*
D03*
X15773Y30674D02*
D03*
X16600D02*
D03*
X15773Y31434D02*
D03*
X16600D02*
D03*
X16244Y6807D02*
D03*
X17071D02*
D03*
X31758Y25628D02*
D03*
X32585D02*
D03*
X22396Y25674D02*
D03*
X23223D02*
D03*
X27327Y10110D02*
D03*
X28154D02*
D03*
X28114Y11660D02*
D03*
X27287D02*
D03*
D39*
X1635Y17660D02*
D03*
X887D02*
D03*
X8813Y20034D02*
D03*
X9561D02*
D03*
X9454Y21070D02*
D03*
X8706D02*
D03*
X9455Y22057D02*
D03*
X8706D02*
D03*
X25861Y9890D02*
D03*
X25113D02*
D03*
X25111Y10620D02*
D03*
X25859D02*
D03*
X25093Y11360D02*
D03*
X25841D02*
D03*
X25112Y12175D02*
D03*
X25860D02*
D03*
X25102Y12923D02*
D03*
X25850D02*
D03*
X25102Y13673D02*
D03*
X25850D02*
D03*
X34041Y14953D02*
D03*
X34789D02*
D03*
X44194Y16778D02*
D03*
X44942D02*
D03*
X862Y18495D02*
D03*
X1610D02*
D03*
X866Y19340D02*
D03*
X1614D02*
D03*
X866Y20179D02*
D03*
X1614D02*
D03*
X39155Y24494D02*
D03*
X38407D02*
D03*
X39155Y23768D02*
D03*
X38407D02*
D03*
X39155Y21591D02*
D03*
X38407D02*
D03*
X39155Y20140D02*
D03*
X38407D02*
D03*
X39155Y20865D02*
D03*
X38407D02*
D03*
X39155Y19414D02*
D03*
X38407D02*
D03*
X39155Y23042D02*
D03*
X38407D02*
D03*
X39155Y22317D02*
D03*
X38407D02*
D03*
D154*
X32270Y7713D02*
D03*
Y8461D02*
D03*
X33368Y8087D02*
D03*
M02*
